<svg xmlns="http://www.w3.org/2000/svg" width="152" height="121.329" viewBox="0 0 152 121.329"><g transform="translate(0 -10.573)"><g transform="translate(0 2.376)"><path d="M14.994,32.5A12.72,12.72,0,0,0,11.5,21.312,17.05,17.05,0,0,0,.238,16.088s-1.56,7.04,3.3,12.113A14.764,14.764,0,0,0,14.994,32.5Z" transform="translate(0 48.742)" fill="#c0964a"/><path d="M8.442,36.617A14.741,14.741,0,0,0,15.34,26.5c1.073-6.931-4.255-11.811-4.255-11.811A17.141,17.141,0,0,0,4.877,25.444,12.694,12.694,0,0,0,8.442,36.617Z" transform="translate(17.564 43.542)" fill="#c0964a"/><path d="M11.294,40.439a14.787,14.787,0,0,0,5.527-10.931c.142-7.012-5.773-11.149-5.773-11.149A17.073,17.073,0,0,0,6.3,29.824,12.7,12.7,0,0,0,11.294,40.439Z" transform="translate(23.478 57.209)" fill="#c0964a"/><path d="M19.343,31.079c-.511-6.993-6.789-10.558-6.789-10.558A17.075,17.075,0,0,0,8.9,32.379a12.687,12.687,0,0,0,5.967,10.1A14.791,14.791,0,0,0,19.343,31.079Z" transform="translate(33.027 65.269)" fill="#c0964a"/><path d="M21.3,43.069a14.733,14.733,0,0,0,1.012-12.2c-2.5-6.562-9.546-8.17-9.546-8.17a17.128,17.128,0,0,0-.09,12.42A12.706,12.706,0,0,0,21.3,43.069Z" transform="translate(43.086 73.396)" fill="#c0964a"/><path d="M9.455,33.539a12.676,12.676,0,0,0,3.3-11.248A17.122,17.122,0,0,0,6.3,11.691s-5.206,5-3.976,11.919A14.732,14.732,0,0,0,9.455,33.539Z" transform="translate(7.97 32.35)" fill="#c0964a"/><path d="M19.377,31.755a12.714,12.714,0,0,0-6.638-9.669,17.152,17.152,0,0,0-12.3-1.678s.586,7.191,6.723,10.6A14.764,14.764,0,0,0,19.377,31.755Z" transform="translate(1.631 63.094)" fill="#c0964a"/><path d="M23.237,31.772a12.711,12.711,0,0,0-8.619-7.948A17.106,17.106,0,0,0,2.249,24.912s2.18,6.879,8.917,8.846A14.692,14.692,0,0,0,23.237,31.772Z" transform="translate(8.386 75.048)" fill="#c0964a"/><path d="M26.609,30.687a12.694,12.694,0,0,0-10.619-4.96A17.121,17.121,0,0,0,4.529,30.5S8.69,36.413,15.7,36.238A14.71,14.71,0,0,0,26.609,30.687Z" transform="translate(16.886 84.662)" fill="#c0964a"/><path d="M18.786,27.625a17.134,17.134,0,0,0-10.8,6.118s4.827,5.371,11.777,4.364A14.707,14.707,0,0,0,29.92,31.289,12.7,12.7,0,0,0,18.786,27.625Z" transform="translate(29.778 91.204)" fill="#c0964a"/><path d="M6.894,17.166l-3.437-.137c-.009.378-.865,37.611,55.318,54.4l.983-3.291C6.26,52.149,6.832,18.58,6.894,17.166Z" transform="translate(12.881 52.25)" fill="#c0964a"/><path d="M29.142,32.532A14.751,14.751,0,0,0,40.6,28.22c4.86-5.068,3.3-12.113,3.3-12.113a17.112,17.112,0,0,0-11.267,5.229A12.7,12.7,0,0,0,29.142,32.532Z" transform="translate(107.864 48.813)" fill="#c0964a"/><path d="M25.3,26.517A14.756,14.756,0,0,0,32.2,36.63a12.7,12.7,0,0,0,3.57-11.163A17.123,17.123,0,0,0,29.56,14.716S24.231,19.586,25.3,26.517Z" transform="translate(93.791 43.628)" fill="#c0964a"/><path d="M29.4,18.379s-5.915,4.137-5.778,11.149a14.812,14.812,0,0,0,5.527,10.931,12.717,12.717,0,0,0,5-10.614A17.143,17.143,0,0,0,29.4,18.379Z" transform="translate(88.071 57.283)" fill="#c0964a"/><path d="M21.1,31.111A14.774,14.774,0,0,0,25.572,42.5,12.687,12.687,0,0,0,31.538,32.4a17.119,17.119,0,0,0-3.65-11.863S21.619,24.109,21.1,31.111Z" transform="translate(78.527 65.336)" fill="#c0964a"/><path d="M19.025,30.9a14.725,14.725,0,0,0,1.012,12.194,12.7,12.7,0,0,0,8.619-7.943,17.129,17.129,0,0,0-.095-12.425S21.535,24.333,19.025,30.9Z" transform="translate(67.576 73.47)" fill="#c0964a"/><path d="M31.24,33.564a14.748,14.748,0,0,0,7.135-9.934c1.229-6.917-3.981-11.919-3.981-11.919a17.082,17.082,0,0,0-6.454,10.6A12.671,12.671,0,0,0,31.24,33.564Z" transform="translate(103.335 32.425)" fill="#c0964a"/><path d="M34.341,22.111A12.7,12.7,0,0,0,27.7,31.775a14.756,14.756,0,0,0,12.217-.742c6.137-3.409,6.723-10.6,6.723-10.6A17.111,17.111,0,0,0,34.341,22.111Z" transform="translate(103.279 63.167)" fill="#c0964a"/><path d="M34.077,23.847a12.711,12.711,0,0,0-8.619,7.948,14.751,14.751,0,0,0,12.08,1.99c6.737-1.962,8.917-8.846,8.917-8.846A17.1,17.1,0,0,0,34.077,23.847Z" transform="translate(94.91 75.129)" fill="#c0964a"/><path d="M33.567,25.748a12.691,12.691,0,0,0-10.619,4.964,14.715,14.715,0,0,0,10.907,5.551c7.012.17,11.172-5.735,11.172-5.735A17.108,17.108,0,0,0,33.567,25.748Z" transform="translate(85.552 84.74)" fill="#c0964a"/><path d="M30.652,27.645A12.69,12.69,0,0,0,19.522,31.3a14.719,14.719,0,0,0,10.151,6.823c6.955,1.007,11.777-4.369,11.777-4.369A17.145,17.145,0,0,0,30.652,27.645Z" transform="translate(72.78 91.278)" fill="#c0964a"/><path d="M73.089,17.048l-3.442.137c.061,1.423.634,34.978-52.864,50.963l.983,3.286C73.954,54.659,73.1,17.426,73.089,17.048Z" transform="translate(62.569 52.321)" fill="#c0964a"/><path d="M61.559,67.319,58.551,42.857,74.927,26.215,51.456,23.077,40.825,2.478v-.1L30.172,23,6.7,26.139,23.08,42.784l-3,24.458,20.73-11.264v.066Z" transform="translate(35.182 7.321)" fill="none" stroke="#c0964a" stroke-linecap="round" stroke-linejoin="round" stroke-width="3"/></g></g></svg>