<svg xmlns="http://www.w3.org/2000/svg" width="134.188" height="136.296" viewBox="0 0 134.188 136.296"><path d="M133.051,58.389a9.762,9.762,0,0,0-6.046-4.162,9.818,9.818,0,0,0-6.548-14.154,9.842,9.842,0,0,0-.508-10,9.754,9.754,0,0,0-6.046-4.162A9.829,9.829,0,0,0,99.774,13.146l-9.785,6.48a61.147,61.147,0,0,0-16.521-5.591,45.43,45.43,0,0,0-6.3-7.627L63.115,2.484a8.858,8.858,0,0,0-13.55,11.25q.159.242.313.486a61.653,61.653,0,1,0,70.274,81.367,2.119,2.119,0,1,0-3.986-1.439,57.489,57.489,0,0,1-72.144,34.989l17.243-11.419,0,0s0,0,0,0l14.33-9.49h0a5.781,5.781,0,0,0,1.628-8.01l-.189-.287,2.784-1.844A9.44,9.44,0,0,1,86.55,96.63a13.664,13.664,0,0,0,9.738-2.106l23.089-15.29a57.532,57.532,0,0,1-.781,5.952,2.119,2.119,0,0,0,1.7,2.471,2.067,2.067,0,0,0,.389.036,2.12,2.12,0,0,0,2.081-1.733,61.98,61.98,0,0,0,1.013-9.638l6.506-4.309a9.831,9.831,0,0,0,2.768-13.623ZM85.875,22.351,79.4,26.639,78.124,23.2a45.356,45.356,0,0,0-1.819-4.212A56.888,56.888,0,0,1,85.875,22.351ZM18.765,37.043a57.418,57.418,0,0,1,33.14-18.9A26.182,26.182,0,0,1,53.226,34L48.059,56.327a5.769,5.769,0,0,0-7.4-.862L26.026,65.157h0a0,0,0,0,0,0,0L4.914,79.138c-.115-1.489-.176-2.99-.176-4.489A57.4,57.4,0,0,1,18.765,37.043ZM73.92,103.712a1.535,1.535,0,0,1-.661.98h0l-12.586,8.334L37.313,78.187a2.119,2.119,0,0,0-3.52,2.36l23.346,34.819-17.968,11.9a57.59,57.59,0,0,1-33.7-43.492L26.6,69.824l2.432,3.629a2.119,2.119,0,1,0,3.521-2.36l-2.416-3.6L43,59a1.542,1.542,0,0,1,2.136.436L73.7,102.555A1.528,1.528,0,0,1,73.92,103.712ZM130.335,64.93a5.553,5.553,0,0,1-2.393,3.549L120.5,73.405l-.007,0L93.948,90.991a9.435,9.435,0,0,1-6.727,1.454,13.672,13.672,0,0,0-9.738,2.106L74.7,96.394,51.311,61.077l6.046-26.116a30.449,30.449,0,0,0-2.229-19.988,2.077,2.077,0,0,0-.089-.188A29.976,29.976,0,0,0,53.1,11.394a4.619,4.619,0,0,1,7.067-5.867l4.048,3.924A41.407,41.407,0,0,1,74.15,24.68l2.2,5.939c0,.011.008.021.012.031l.017.042c.016.036.03.07.046.1a2.09,2.09,0,0,0,.146.262,2.118,2.118,0,0,0,2.937.6l22.6-14.968A5.591,5.591,0,1,1,108.29,26l-1.962,1.3h0l-4.377,2.9a.157.157,0,0,1-.017.011c-.025.018-.049.034-.069.051a2.118,2.118,0,0,0,2.426,3.471l4.38-2.9a5.592,5.592,0,0,1,6.172,9.327l-6.341,4.2a2.119,2.119,0,1,0,2.34,3.533l.982-.65,3.4-2.249a5.592,5.592,0,0,1,6.175,9.324l-3.167,2.1-.05.033-3.124,2.068a2.119,2.119,0,1,0,2.34,3.534l.982-.65a0,0,0,0,1,0,0l3.4-2.248a5.59,5.59,0,0,1,8.565,5.774Zm0,0" transform="translate(-0.5 0)" fill="#c0964a"/></svg>