<svg xmlns="http://www.w3.org/2000/svg" width="113.143" height="137.927" viewBox="0 0 113.143 137.927"><g transform="translate(-128.248 -1781.359)"><path d="M100.7,45.958l5.8-5.8A8.081,8.081,0,1,0,95.075,28.73l-6.192,6.192a56.583,56.583,0,0,0-21.536-9.107V17.78h5.388a2.694,2.694,0,0,0,2.694-2.694v-7A8.091,8.091,0,0,0,67.347,0H45.8a8.091,8.091,0,0,0-8.082,8.082v7a2.694,2.694,0,0,0,2.694,2.694H45.8v8.035A56.574,56.574,0,0,0,24.26,34.922L18.068,28.73A8.081,8.081,0,0,0,6.64,40.158l5.8,5.8a56.572,56.572,0,1,0,88.265,0ZM98.885,32.539a2.694,2.694,0,0,1,3.809,3.809l-5.567,5.566q-1.882-1.932-3.938-3.679ZM43.1,8.082A2.7,2.7,0,0,1,45.8,5.388H67.347a2.7,2.7,0,0,1,2.694,2.694v4.31H43.1Zm18.857,9.7v7.259a57.956,57.956,0,0,0-10.776,0V17.78Zm-51.51,14.76a2.7,2.7,0,0,1,3.809,0l5.7,5.7Q17.9,39.98,16.016,41.914l-5.567-5.566A2.7,2.7,0,0,1,10.449,32.539Zm46.122,100a51.189,51.189,0,0,1-7.682-101.8,52.01,52.01,0,0,1,15.363,0,51.148,51.148,0,0,1,23.282,9.852,51.671,51.671,0,0,1,7.5,6.984,51.186,51.186,0,0,1-38.458,84.962Zm0,0" transform="translate(128.248 1781.359)" fill="#c0964a"/><path d="M188.082,229.714a8.081,8.081,0,0,0,2.694-15.7v-19.32a2.694,2.694,0,0,0-5.388,0v19.32a8.081,8.081,0,0,0,2.694,15.7Zm0-10.776a2.694,2.694,0,1,1-2.694,2.694A2.7,2.7,0,0,1,188.082,218.939Zm0,0" transform="translate(-3.262 1641.082)" fill="#c0964a"/><path d="M129.106,168.151c-.042-.049-.084-.1-.132-.145s-.1-.1-.158-.144a40.555,40.555,0,0,0-16.979-10.053,2.694,2.694,0,0,0-1.526,5.167,35.11,35.11,0,0,1,12.866,7.016l-1.817,1.817a2.694,2.694,0,1,0,3.81,3.81l1.822-1.822a34.692,34.692,0,0,1,8.333,20.08h-2.591a2.694,2.694,0,0,0,0,5.388h2.591a34.689,34.689,0,0,1-8.333,20.08l-1.822-1.822a2.694,2.694,0,0,0-3.81,3.81l1.822,1.822a34.7,34.7,0,0,1-20.08,8.334V228.9a2.694,2.694,0,1,0-5.388,0v2.591a34.692,34.692,0,0,1-20.08-8.333l1.822-1.822a2.694,2.694,0,0,0-3.81-3.81l-1.822,1.822a34.692,34.692,0,0,1-8.333-20.08h2.591a2.694,2.694,0,0,0,0-5.388H65.491a34.692,34.692,0,0,1,8.333-20.08l1.822,1.822a2.694,2.694,0,1,0,3.81-3.81l-1.817-1.817a35.1,35.1,0,0,1,12.866-7.016,2.694,2.694,0,0,0-1.526-5.167A40.542,40.542,0,0,0,72,167.857c-.056.047-.11.1-.162.147s-.087.095-.129.143a40.342,40.342,0,0,0,0,56.844c.042.049.084.1.132.145s.095.088.143.13a40.344,40.344,0,0,0,56.843,0c.049-.043.1-.085.145-.133s.087-.095.129-.142a40.342,40.342,0,0,0,0-56.844Zm0,0" transform="translate(84.411 1666.144)" fill="#c0964a"/><path d="M202.694,157.388A2.694,2.694,0,1,0,200,154.694,2.7,2.7,0,0,0,202.694,157.388Zm0,0" transform="translate(-17.874 1670.307)" fill="#c0964a"/></g></svg>