<svg xmlns="http://www.w3.org/2000/svg" width="140.69" height="136" viewBox="0 0 140.69 136"><g transform="translate(-821.897 -1780)"><path d="M37.345,18.69H95.966a2.345,2.345,0,1,0,0-4.69H37.345a2.345,2.345,0,0,0,0,4.69Z" transform="translate(864.276 1794.138)" fill="#c0964a"/><path d="M140.345,39.517H36.769a2.345,2.345,0,0,0-1.657.687L19.671,55.645a2.345,2.345,0,1,1-3.318-3.316l8.81-8.81a2.345,2.345,0,0,0-1.658-4H9.034a2.345,2.345,0,0,1,0-4.69h63.31a2.345,2.345,0,0,0,0-4.69H50.407a21.064,21.064,0,0,0,7.869-16.414,2.345,2.345,0,0,0-2.345-2.345H46.552a21.005,21.005,0,0,0-16.716,8.29A21.12,21.12,0,0,0,9.034,2,2.345,2.345,0,0,0,6.69,4.345v9.379a20.96,20.96,0,0,0,7.935,16.414H9.034a7.034,7.034,0,1,0,0,14.069h8.81l-4.807,4.807a7.035,7.035,0,0,0,9.949,9.949L37.74,44.207H62.966V58.276H53.586a9.379,9.379,0,0,0-9.379,9.379,9.283,9.283,0,0,0,1.3,4.69h-1.3a9.379,9.379,0,0,0-9.379,9.379,9.283,9.283,0,0,0,1.3,4.69h-1.3a11.724,11.724,0,0,0,0,23.448h1.3a9.283,9.283,0,0,0-1.3,4.69,9.379,9.379,0,0,0,9.379,9.379h1.3a9.283,9.283,0,0,0-1.3,4.69A9.379,9.379,0,0,0,53.586,138H77.034a9.379,9.379,0,0,0,9.379-9.379,9.283,9.283,0,0,0-1.3-4.69h1.3a9.379,9.379,0,0,0,8.814-6.249,2.345,2.345,0,1,0-4.42-1.571,4.69,4.69,0,0,1-4.394,3.13H44.207a4.69,4.69,0,0,1,0-9.379H95.793a11.724,11.724,0,1,0,0-23.448h-1.3a9.283,9.283,0,0,0,1.3-4.69,9.379,9.379,0,0,0-9.379-9.379h-1.3a9.283,9.283,0,0,0,1.3-4.69,9.379,9.379,0,0,0-9.379-9.379H67.655V44.207h72.69a2.345,2.345,0,0,0,0-4.69ZM46.552,16.069H53.42A16.44,16.44,0,0,1,37.172,30.138H32.762a16.435,16.435,0,0,1,11.445-4.69,2.345,2.345,0,1,0,0-4.69,20.979,20.979,0,0,0-12.062,3.867,16.428,16.428,0,0,1,14.407-8.556ZM11.379,13.724V6.856A16.44,16.44,0,0,1,25.448,23.1v1.025a25.831,25.831,0,0,0-6.737-6.418A2.345,2.345,0,1,0,16.1,21.605a18.759,18.759,0,0,1,7,7.829,16.428,16.428,0,0,1-11.724-15.71Zm70.345,114.9a4.69,4.69,0,0,1-4.69,4.69H53.586a4.69,4.69,0,0,1,0-9.379H77.034A4.69,4.69,0,0,1,81.724,128.621Zm9.379-46.9a4.69,4.69,0,0,1-4.69,4.69H81.293a2.345,2.345,0,0,0,0,4.69h14.5a7.034,7.034,0,1,1,0,14.069H34.828a7.034,7.034,0,1,1,0-14.069h14.5a2.345,2.345,0,0,0,0-4.69H44.207a4.69,4.69,0,0,1,0-9.379H86.414A4.69,4.69,0,0,1,91.1,81.724ZM81.724,67.655a4.69,4.69,0,0,1-4.69,4.69H53.586a4.69,4.69,0,1,1,0-9.379H77.034A4.69,4.69,0,0,1,81.724,67.655Z" transform="translate(819.897 1778)" fill="#c0964a"/><path d="M83.187,35.879a9.358,9.358,0,0,0-16.414-7.06,17.978,17.978,0,0,0-2.915,5.276,7.051,7.051,0,0,0-3.677-2.7,9.41,9.41,0,0,0-3.517-5.517l-1.876-1.407a2.345,2.345,0,0,0-2.814,3.752l1.876,1.407a4.676,4.676,0,0,1,1.489,1.96,6.918,6.918,0,0,0-1.808,1.154,9.215,9.215,0,0,0-4.748-1.611l-2.345-.094a2.347,2.347,0,1,0-.188,4.69l2.345.094a4.582,4.582,0,0,1,2.579.952,6.929,6.929,0,0,0,4.617,7.921c0,.141-.059.274-.059.415v9.379a7.009,7.009,0,0,0,3.684,6.146l-1.093,2.185a2.346,2.346,0,1,0,4.2,2.1l1.787-3.576A7.034,7.034,0,0,0,69.8,54.483V52.429a17.467,17.467,0,0,0,3.33.317,19.387,19.387,0,0,0,7.668-1.484A9.379,9.379,0,0,0,85.328,38.8a9.26,9.26,0,0,0-2.141-2.917Zm-9.64-5.616a4.629,4.629,0,0,1,4.793,3.25,9.335,9.335,0,0,0-5.468.746,18.8,18.8,0,0,0-5.379,4.2,15.783,15.783,0,0,1,2.842-6.58,4.671,4.671,0,0,1,3.212-1.616ZM60.489,44.651a7.034,7.034,0,0,0,2.741-1.827,2.261,2.261,0,0,1,1.013.5,7.358,7.358,0,0,0-.544,4.127H60.416V45.1a2.13,2.13,0,0,1,.066-.453Zm-4.577-7.459a.06.06,0,0,1,.016-.049,3.911,3.911,0,1,1-.016.049Zm6.849,19.636a2.345,2.345,0,0,1-2.345-2.345V52.138h4.69v2.345A2.345,2.345,0,0,1,62.761,56.828Zm16.05-9.818c-3.175,1.482-9.743,1.306-10.484-.286-.213-.469.045-1.876,1.625-3.951a15.394,15.394,0,0,1,4.894-4.263,4.69,4.69,0,1,1,3.965,8.5Z" transform="translate(876.377 1807.586)" fill="#c0964a"/><path d="M34.379,36a9.379,9.379,0,1,0,9.379,9.379A9.379,9.379,0,0,0,34.379,36Zm0,14.069a4.69,4.69,0,1,1,4.69-4.69A4.69,4.69,0,0,1,34.379,50.069Z" transform="translate(850.828 1823.724)" fill="#c0964a"/></g></svg>