<svg width="35" height="35" xmlns="http://www.w3.org/2000/svg">
 <style type="text/css">.st0{display:none;fill:#000000;}
	.st1{display:none;}
	.st2{display:inline;fill:#000000;stroke:#000000;stroke-width:0.75;stroke-linecap:round;stroke-linejoin:round;}
	.st3{display:inline;fill:none;stroke:#000000;stroke-width:2.5;stroke-linecap:round;stroke-linejoin:round;}
	.st4{fill:#000000;}</style>

 <g>
  <title>background</title>
  <rect fill="none" id="canvas_background" height="402" width="582" y="-1" x="-1"/>
 </g>
 <g>
  <title>Layer 1</title>
  <path d="m28.7,10.4l5.2,0c0.3,0 0.5,0.1 0.7,0.3c0.2,0.2 0.4,0.5 0.4,0.8l0,3.5c0,0.3 -0.1,0.5 -0.3,0.7c-0.2,0.2 -0.5,0.3 -0.7,0.3l-0.7,0c-0.1,0.3 -0.1,0.6 -0.2,0.8c-0.6,2.7 -1.2,5.3 -1.7,8.1c-0.5,2.3 -1,4.5 -1.4,6.8c-0.1,0.5 -0.6,0.9 -1.1,0.8l-22.5,0c-0.2,0 -0.3,0 -0.5,-0.1c-0.4,-0.1 -0.6,-0.4 -0.6,-0.8c-0.6,-3 -1.3,-6.1 -1.9,-9.2l-1.4,-6.3c0,-0.1 0,-0.1 -0.1,-0.2l-0.9,0c-0.6,0 -1,-0.5 -1,-1l0,-3.5c0,-0.6 0.5,-1 1,-1l5.4,0c0.1,-0.1 0.1,-0.2 0.1,-0.3l4.7,-7.1c0.1,-0.1 0.1,-0.1 0.1,-0.2c0.3,-0.4 0.9,-0.5 1.4,-0.2c0.4,0.3 0.6,0.9 0.4,1.4c-0.1,0 -0.1,0.1 -0.1,0.2c-1.3,2 -2.6,4 -3.9,5.9c-0.1,0.1 -0.1,0.1 -0.1,0.3l17.3,0c0,-0.1 -0.1,-0.1 -0.1,-0.2c-1.1,-1.7 -2.3,-3.5 -3.4,-5.2c-0.2,-0.3 -0.4,-0.6 -0.6,-0.9c-0.2,-0.3 -0.2,-0.7 0,-1.1c0.1,-0.3 0.4,-0.6 0.8,-0.6c0.3,0 0.7,0.1 0.9,0.4c0,0.1 0.1,0.2 0.1,0.3c1.5,2.3 3,4.6 4.5,7c0.1,0.1 0.2,0.2 0.2,0.3zm-21.5,20.1c0.5,0.1 20.9,0 21,0c1,-4.8 2.1,-9.6 3,-14.4c-0.3,-0.1 -26.9,-0.1 -27.1,-0.1c1,4.8 2,9.6 3.1,14.5zm20.5,-18.1l-20,0c-0.3,0.5 -0.6,1 -0.9,1.4l21.9,0c-0.4,-0.4 -0.7,-0.9 -1,-1.4zm-25.6,0.1l0,1.4c0.3,0.1 3.1,0 3.3,0c-0.4,-0.4 -0.4,-0.9 -0.1,-1.4l-3.2,0zm30.9,0l-2.9,0c0.3,0.4 0.3,1 -0.1,1.4l3,0l0,-1.4z" class="st0" id="Shape"/>
  <g id="svg_1" class="st1">
   <path d="m11.4,18.3c-5.8,2.4 -9.8,8 -9.8,14.7l-1.4,0c0,-7 4.2,-13 10.2,-15.7" class="st2" id="Shape_3_"/>
   <path d="m24.2,17.1c6.2,2.6 10.5,8.8 10.5,15.9l-1.3,0c0,-6.7 -4.2,-12.5 -10.1,-14.8" class="st2" id="Shape_2_"/>
   <path id="svg_2" d="m26.7,11.2c0,2.5 -1,4.8 -2.7,6.5c-1.7,1.7 -4,2.7 -6.5,2.7c-2.5,0 -4.8,-1 -6.5,-2.7c-1.7,-1.7 -2.7,-4 -2.7,-6.5c0,-5.1 4.1,-9.2 9.2,-9.2s9.2,4.1 9.2,9.2z" class="st3"/>
  </g>
  <g id="svg_3">
   <path id="svg_4" d="m23.4,8.4l0,-4.1c0,0 0.1,-1.1 -0.9,-1.1c-0.9,0 -19.1,0 -19.1,0s-0.8,0.1 -0.8,0.8s0,26.2 0,26.2s-0.1,0.8 0.8,0.8s19.3,0 19.3,0s0.7,-0.2 0.7,-0.8s0,-9.4 0,-9.4l2.5,-2.3l0,11.7c0,0 -0.1,3.2 -2.7,3.2l-20.2,0c0,0 -3,-0.4 -3,-3s0,-27.2 0,-27.2s0.4,-2.4 2.6,-2.4s20.2,0 20.2,0s3,0.2 3,3s0,2.4 0,2.4l-2.4,2.2z" class="st4"/>
   <rect id="svg_5" height="3.8" width="13.1" y="7.3" x="6.4"/>
   <rect id="svg_6" height="1.9" width="8.5" class="st4" y="16.5" x="4.4"/>
   <rect id="svg_7" height="1.8" width="8.5" class="st4" y="21.9" x="4.4"/>
   <rect id="svg_8" height="1.9" width="17" class="st4" y="26.9" x="4.4"/>
   <polygon id="svg_9" points="16.2,18.7 14.6,23.4 19.1,21.8  " class="st4"/>
   <polygon id="svg_10" points="17.1,17.8 20.2,20.9 34.9,6.5 31.9,3.5  " class="st4"/>
  </g>
 </g>
</svg>