<svg width="285.4" height="71.3" xmlns="http://www.w3.org/2000/svg">
 <style type="text/css">.st0{fill:#000000;}</style>

 <g>
  <title>background</title>
  <rect fill="none" id="canvas_background" height="402" width="582" y="-1" x="-1"/>
 </g>
 <g>
  <title>Layer 1</title>
  <g id="svg_1">
   <g id="svg_2">
    <path id="svg_3" d="m2.9,1.1l2.5,0l1,0l0.3,0.1c0.5,-0.1 1.1,-0.1 1.8,0l1.5,0l0.8,0l0.5,0c0.4,0 0.9,0 1.4,0.1c0.8,-0.1 1.8,-0.2 2.9,-0.1l0.4,0l1.5,0l0.4,0l0.6,0l0.6,0l0.4,0l0.5,0.2c5,-0.4 9.5,1.4 13.5,5.2l1.2,2.4l0.3,0.2c0.2,0.7 0.3,1.6 0.4,2.8l0,0.9l0,0.4l0,0.9l-0.1,0.3l0.1,0.3c-0.3,0.4 -0.5,0.9 -0.6,1.4l-0.3,0.9c-0.3,0.4 -0.5,0.9 -0.8,1.5c-0.3,0.2 -0.6,0.5 -0.9,0.9c-0.2,0.2 -0.4,0.5 -0.5,0.9c4.6,3.9 5.6,8.6 2.9,14.4l-0.5,1.4c-0.7,0.5 -1.4,1.3 -2,2.3c-0.4,0.2 -0.8,0.5 -1.3,0.9l-0.4,0.3l-0.4,0.4c-0.6,0.1 -1.3,0.4 -2,0.9l-0.4,0.1l-0.2,-0.3l-0.3,0.2c-0.4,0.1 -0.8,0.3 -1.1,0.5c-0.4,0 -0.9,0.1 -1.4,0.3c-0.1,0 -0.3,0 -0.4,0.1c-0.4,0 -0.9,0 -1.5,-0.1l-0.4,0.1l-2.1,0l-0.4,0l-0.4,0l-0.8,0l-0.5,0l-0.4,0l-0.5,0c-0.5,0 -1,0 -1.6,-0.1l-1.8,0.1l-0.8,-0.1l-0.8,0.1c-0.6,-0.1 -1.2,-0.2 -2,-0.1l-1,0l-2.5,0l-0.4,0l-0.5,0l-0.4,0l-0.6,0l-0.4,0c-0.4,0 -0.9,0 -1.4,-0.1l-0.4,0c-0.1,-0.5 -0.4,-1 -0.8,-1.6c0.4,-0.5 0.6,-1 0.8,-1.6c0.4,-0.4 0.7,-0.9 0.9,-1.5l0.3,-0.4c-0.1,-0.7 -0.1,-1.5 0,-2.5c0,-0.4 0,-0.9 0,-1.4l-0.1,-0.3c0.1,-0.6 0.1,-1.3 0.1,-2.1l0,-0.6c0.1,-0.6 0.1,-1.2 -0.1,-1.9l0,-2.5c0.1,-0.4 0.2,-0.9 0.1,-1.5l0.1,-0.3l-0.1,-2c0,-0.3 0,-0.6 0.1,-1c0,-0.5 0,-1.1 0,-1.6c0.1,-0.3 0.1,-0.6 0.1,-1l-0.1,-0.8c0.1,-0.6 0,-1.3 -0.1,-2.1l0.1,-0.5l-0.1,-0.4c0.1,-0.5 0.1,-1 0.1,-1.6c0,-0.7 0,-1.2 0.1,-1.5l-0.1,-1.4l0.1,-2.3l-0.1,-0.9c-0.1,-0.3 -0.1,-0.6 -0.1,-1l-0.1,-1c-0.2,-0.5 -0.5,-1.1 -0.9,-1.9l-0.2,-0.2l-0.1,-0.4c0,-0.1 -0.1,-0.2 -0.3,-0.3l0,-0.5l0.1,0zm5.9,0.6c-0.6,0.1 -1.2,0.2 -2,0.1l-0.4,0l-0.4,0l-0.9,0l-0.4,0l-0.5,0l-0.3,0c0.1,0.9 0.4,1.7 1,2.6c0,0.2 0.1,0.5 0.3,0.8l0,0.6c-0.2,0.7 -0.2,1.6 -0.1,2.5l0,1c-0.1,0.2 -0.1,0.5 0,0.8l-0.1,0.2c0.1,0.4 0.1,0.8 0.1,1.4c-0.2,0.7 -0.2,1.4 0,2.1l-0.1,0.4l-0.1,1.9l0.1,0.3l0.1,0.6c-0.1,0.5 -0.1,1 -0.1,1.7l0,0.8l0,0.8l0,2.5c-0.1,0.7 -0.1,1.5 0,2.4l0,0.4l0,0.4l0,1c-0.1,0.8 -0.1,1.8 0,2.9c-0.2,0.7 -0.2,1.5 -0.1,2.5l0,0.9l-0.2,0.7c0.2,0.5 0.2,1 0,1.6l0.1,0.9c-0.2,0.6 -0.6,1.2 -1.1,1.9l-0.3,1c0.8,0.2 1.8,0.2 2.9,0.1l1.4,0l0.4,0l0.4,0l0.5,0.2c0.4,-0.1 0.8,-0.1 1.3,-0.1c0.1,0.1 0.3,0.1 0.4,0l0.6,0.1l0.5,-0.1l0.6,0.1l0.8,0l0.6,0l1,0l0.9,0l0.9,0c0.4,0 0.8,0 1.3,0.1c0.6,-0.1 1.2,-0.1 2,-0.1l0.4,0l0.4,0l0.9,0l0.4,0l0.9,0.1l0.4,-0.1c1,0.1 2.1,0 3.3,-0.4l0.8,0c5.8,-2.4 8.2,-7 7.4,-13.7c-0.5,-2.9 -2,-4.9 -4.4,-5.9c3.1,-2.7 4,-6.2 2.6,-10.3c-0.6,-2.3 -2.1,-4.3 -4.3,-5.9c-0.5,-0.1 -1,-0.3 -1.6,-0.6l-0.4,-0.1l-0.4,-0.1l-0.4,0l-0.9,-0.1c-0.4,-0.1 -0.9,-0.2 -1.4,-0.3l-1,-0.3c-0.5,0 -1.1,0 -1.8,-0.1c-0.6,0.1 -1.3,0.2 -2.1,0.1l-0.4,0l-0.8,-0.1l-0.9,0.1l-0.4,0c-0.5,-0.1 -1.3,-0.1 -2.1,-0.1l-2.1,0l-1,0l-0.6,0l-0.9,0l-0.7,-0.2zm1.9,2.7c0.4,0.1 0.8,0.2 1.3,0.1l2.1,0.1l1.3,0c0.6,-0.1 1.3,0 2.1,0.1l0.3,-0.1l0.4,0c0.4,0.1 0.8,0.1 1.3,0l1.5,0.1l2.5,0.1c0.6,0 1.2,0.2 2,0.5l0.5,-0.2c0.1,0.2 0.1,0.4 -0.1,0.5c3.4,1.3 5,3.9 4.7,7.8c0.3,2.6 -0.8,4.7 -3.3,6c0,0.1 0,0.3 0,0.5c4.8,2.3 6.3,6.3 4.3,11.8c-0.7,2.2 -2.3,3.9 -4.8,5.2c-0.5,0 -1,0.1 -1.5,0.4l-0.4,0c-0.4,0 -0.7,0 -1,0.1c-0.3,-0.1 -0.7,0 -1.1,0.1l-0.3,-0.1c-0.1,0 -0.3,0 -0.4,0.1l-0.4,-0.1c-0.3,0.1 -0.6,0.1 -1,0.1l-0.5,0l-0.5,0l-2.3,0l-0.4,0l-1.4,0l-0.4,-0.1c-0.4,0 -0.8,0 -1.3,0l-1.4,0l-2.3,0l-0.4,0l-0.9,0l-0.4,0c-0.1,0 -0.3,0 -0.4,0l-0.3,0l-0.5,-0.1c0.2,-0.6 0.3,-1.2 0.4,-2l0.1,-0.3c-0.1,-0.4 -0.1,-0.9 0,-1.4c-0.1,-0.4 -0.1,-0.9 0,-1.5l-0.1,-0.3l0,-0.5c0.1,-0.6 0.1,-1.2 0,-1.9l0.1,-0.4l0,-1c0,-0.5 0,-1.2 -0.1,-2c0.1,-0.2 0.1,-0.5 0,-0.8c0.1,-0.6 0.2,-1.3 0.1,-2.1l0,-0.6l0,-0.8c0.1,-0.8 0.1,-1.8 0,-3.1l0.2,-0.7l-0.3,-0.8c0.3,-0.6 0.3,-1.3 0.1,-2.1l0,-1.1l0.1,-0.5c0,-0.3 0,-0.7 -0.1,-1.1c0.1,-0.4 0.1,-1 0.1,-2l0.1,-0.7c0,-0.1 -0.1,-0.2 -0.3,-0.3c0.3,-0.8 0.3,-1.9 0.2,-3.2l-0.1,-1c0.6,-0.3 1.4,-0.5 2.4,-0.5l0.5,-0.2zm3.6,16.9c-0.6,0.1 -1.2,0.2 -2,0.1l-1,0l-0.4,0.3l0,1.4c0,0.3 0,0.6 0.1,0.9l0,0.4l-0.1,1l0,0.4l0.1,0.4l-0.1,0.4l0,0.4l0,0.4l0,0.5l0,1.4c0,0.5 0,1.1 -0.1,1.8l0,0.6l0.1,0.4l0,1.6l0,0.8c1,0.2 2.4,0.3 4,0.1c0.5,0.1 1.1,0.1 1.8,0c0.5,0.1 1.1,0.1 1.8,0.1l0.5,0l0.5,0l2.1,0c0.5,-0.1 1.1,-0.1 1.6,0l0.4,0l1,-0.1l1.5,-0.8l0.4,-0.1l0.3,-0.1l0.4,-0.1l0.8,-0.5l0.8,-1.5l0.4,-0.8l0.3,-0.1l-0.3,-0.6c1,-3.2 0.1,-5.9 -2.8,-7.9c-2,-0.7 -4.1,-0.8 -6.4,-0.5l-1.5,0c-1,-0.1 -2.3,-0.2 -3.9,-0.1l-0.3,-0.2zm-2.9,-13.6l-0.4,0.3c0.1,0.5 0,1.2 -0.1,2l0.1,0.3l0,0.9l-0.1,0.5l0,0.5l0.1,0.6l-0.1,0.5l0,0.6l0.1,0.5c0,0.4 0,1 0,1.6l0,1.6l0,0.4c0.5,0.1 1.2,0.1 2,0.1l1,0c0.3,0.1 0.6,0.1 1,0.1l0.5,0l1.5,0l1.8,0c0.5,0.1 1.2,0 2,-0.1c0.9,0.2 1.9,0.2 3,0l0.5,-0.1c0.7,-0.2 1.5,-0.7 2.3,-1.3l0.3,-0.1c0.3,-0.5 0.4,-1.1 0.5,-1.8c1.1,-2.9 0.2,-5.1 -2.6,-6.5l-2.8,-0.5l-0.9,0l-1,0l-2.1,0l-0.4,0l-0.4,-0.1l-0.5,0.1c-0.4,-0.1 -0.9,-0.1 -1.4,-0.1l-0.5,0l-0.4,0l-0.5,0l-0.5,0l-0.6,0l-0.9,0l-0.5,0zm3.2,16.4c0.5,0.1 1.2,0.1 2,0.1l1,0l0.4,0l0.4,0l1.8,0l1.6,0c0.6,0 1.3,0.2 2,0.5l0.4,-0.1c2.1,1.3 2.6,3.2 1.5,5.7c-0.3,0.1 -0.7,0.3 -1.1,0.6c-0.7,0.2 -1.5,0.3 -2.5,0.4l-1.5,0c-0.6,0.1 -1.3,0.1 -2.1,0l-1,0l-0.5,0l-2.1,-0.1l-0.5,0l-0.4,0c-0.2,-0.9 -0.2,-2.1 -0.1,-3.4l-0.1,-0.4l0.3,-0.3l-0.1,-0.5l0,-2.1l0.6,-0.4zm-0.3,-13.6l1.5,0l0.4,0l2.1,0c0.1,0 0.3,0 0.4,0l0.4,0.1l0.4,0l0.6,0l0.6,0l0.5,0l0.4,0.1l0.6,0c0.4,0.2 1,0.4 1.6,0.6c0.9,1.5 0.7,2.9 -0.5,4.3c-0.7,0.2 -1.7,0.3 -2.8,0.3l-0.8,0.1l-0.4,0l-0.5,0l-0.4,0.1l-0.4,0l-0.4,0c-0.6,0 -1.3,-0.1 -2.1,-0.1c-0.4,0 -0.8,0 -1.3,0.1l-0.4,-0.3c0.1,-0.6 0.1,-1.4 0,-2.4c0,-0.6 0,-1.2 0,-2l0,-0.4l0.5,-0.5zm2.4,15.8l-0.9,0.4c0.1,0.7 0,1.6 -0.1,2.8c0,0.1 0,0.3 0,0.4l0.1,0.4l-0.1,0.4c0.8,0.2 1.7,0.3 2.6,0.1l1,0c0.7,-0.1 1.6,-0.1 2.8,0.1l0.4,-0.1l0.5,0c0.1,0 0.3,0 0.4,-0.1l0.4,0l0.4,0l0.1,-0.4c1.4,-0.4 1.9,-1.6 1.5,-3.5l-0.5,-0.4c-0.6,0.1 -1.2,0.1 -2,0l-0.5,0.1l-0.3,-0.1l-0.4,0.1l-0.5,-0.1l-0.5,0.1l-0.5,-0.1l-0.8,0l-0.5,0l-2.1,0l-0.5,0l0,-0.1zm-0.2,-13.6l-0.6,0.4l0,2.3c0.7,0.3 1.5,0.4 2.4,0.3c3.8,0.4 5.8,-0.4 5.8,-2.5c-1.1,-0.3 -2.4,-0.4 -4,-0.3l-0.6,-0.1c-0.1,0 -0.2,0 -0.3,0.1c-0.5,-0.1 -1.3,-0.1 -2.1,-0.1l-0.6,0l0,-0.1z" class="st0"/>
    <path id="svg_4" d="m57.9,1.6c0.7,0 1.3,0.1 1.8,0.3c2.4,0 4.4,0.6 6.2,1.8c3.6,0.9 6.1,3 7.6,6c1.9,2.5 2.8,5.2 2.6,8.1l0.3,0.3l0.1,1l0.1,0.5c0.5,0.7 0.8,1.4 1,2c-0.3,0.6 -0.6,1 -1,1.4c0,0.5 -0.1,0.9 -0.3,1.3l-0.4,1l-0.1,0.9c-0.1,0.1 -0.2,0.2 -0.3,0.3l0,0.9c-0.1,0.5 -0.3,0.9 -0.5,1.1l0,0.5c-2.7,7.7 -7.3,12.1 -13.7,13c-6.7,0.7 -12,-1.9 -16,-7.8l0,-0.2l0,0.1l0,-0.3l0,0.2l0,-0.3l0,0.1l0,-0.3l0,0.1l0,-0.1c4.7,5.3 10.1,7.4 16.4,6.2l0.5,0c0.8,-0.3 1.6,-0.5 2.1,-0.6l0.9,-0.5c0.8,-0.7 1.5,-1.2 2.1,-1.5l0.4,-0.5l1.6,-1.8c0.1,-0.1 0.2,-0.2 0.3,-0.3c0.8,-1.2 1.3,-2.1 1.6,-2.9l0.4,0l-0.1,-0.5l0.3,-0.4l0.3,-0.4l0.1,-0.3c0.3,-0.9 0.5,-1.5 0.9,-2c0.1,-0.9 0.4,-1.7 0.8,-2.3l0.3,-2l0.1,-0.4l0.1,-0.5c0.3,-0.8 0.7,-1.5 1.1,-2l0.1,-0.9c-0.4,-0.4 -0.6,-0.7 -0.8,-1.1l-0.3,-0.4l0,-0.4l0,-0.4c-0.3,-0.4 -0.4,-0.9 -0.5,-1.3l0,-0.4l0,-0.4l-0.1,-0.3l-0.3,-0.8l-0.1,-1.3c-0.5,-1 -0.8,-1.8 -0.9,-2.5l-0.4,-0.1l-0.5,-1.1l-0.4,-0.4l-0.1,-0.4c-0.5,-0.5 -0.9,-0.9 -1,-1.4c-0.7,-0.5 -1.1,-1 -1.4,-1.6c-7.5,-5.4 -14.7,-5.5 -21.4,-0.4l-0.4,0.6c-0.2,0.4 -0.5,0.6 -0.9,0.8c-0.3,0.4 -0.6,0.8 -1,1c-0.4,1 -1,1.9 -1.6,2.5l0,0.5l-0.3,0.3c-0.1,0.4 -0.2,0.8 -0.4,1c-0.4,1.2 -0.8,2.1 -1.1,2.8l0.1,0.3c-0.2,0.6 -0.3,1.1 -0.4,1.5c-0.3,0.7 -0.4,1.3 -0.4,1.9c-0.7,0.8 -1.2,1.5 -1.4,2.3c1,1.4 1.5,2.8 1.6,4.3l0.3,0.3c0,0.4 0,0.7 0,1c0.3,0.3 0.4,0.6 0.4,0.9l0.3,0.5l0.1,0.3c0.7,2 1.5,3.7 2.5,4.9c0.2,0.4 0.3,0.7 0.3,1l-0.3,-0.1l-0.1,-0.4c-0.5,-0.4 -0.8,-0.9 -0.9,-1.4l-0.5,-0.4c-0.2,-0.5 -0.3,-0.9 -0.4,-1.3c-0.1,-0.1 -0.2,-0.2 -0.3,-0.3l-0.3,-0.4l-0.1,-0.6l-0.3,-0.4l-0.3,-1l-0.3,-0.4l0,-0.4c-0.3,-0.5 -0.4,-1 -0.4,-1.4c-0.1,-0.1 -0.1,-0.2 -0.1,-0.3l-0.3,-1l-0.3,-0.9c-0.3,-1 -0.8,-1.8 -1.4,-2.4l0,-1c1.2,-1.3 1.9,-2.7 1.9,-4.3l0.3,-0.3c0,-0.8 0.3,-1.4 0.6,-2c2.5,-7.4 7.7,-11.3 15.5,-11.7l0.8,0.1zm13.2,16.8l0.8,2.1l-0.1,0.4c-0.3,0.6 -0.5,1.1 -0.6,1.5c-0.6,7.2 -3.6,11.8 -8.9,14c-5.1,1.4 -9.3,0.4 -12.7,-2.9l-1.1,-0.8c-2.4,-3.4 -3.7,-6.8 -3.9,-10.5c-0.1,-0.1 -0.1,-0.3 -0.1,-0.4l-0.5,0c-0.2,-0.7 -0.4,-1.4 -0.6,-1.9l0.5,-0.9c0.2,-0.5 0.4,-0.9 0.6,-1.3c1,-8.2 5.6,-12.6 13.7,-13.1c8,1.5 12.3,6 12.9,13.8zm-23.7,-2.2c-1.4,11.5 2.2,17.5 10.7,18l0.3,0.1l0.3,-0.1l0.9,-0.1l1.4,-0.1c0.1,-0.1 0.2,-0.1 0.3,-0.1c0.3,-0.1 0.6,-0.2 0.9,-0.3c0.4,-0.4 0.8,-0.6 1.3,-0.6c3.6,-3.7 5.2,-7.9 4.8,-12.5l0.1,-0.4l0,-1l0,-0.4l0,-1.6c-1.9,-6.6 -5.9,-9.7 -12,-9.3c-4.7,0.8 -7.7,3.6 -9,8.4zm17.8,1.9c0.4,4.6 -0.5,8.5 -2.8,11.7l-0.4,0.2l-0.1,0.3l-0.4,0.1c-0.4,0.4 -0.8,0.8 -1.3,1c-5.6,0.5 -8.9,-1.8 -9.7,-7.2c-1.2,-4.8 -0.4,-8.9 2.6,-12.2l0.4,0c1.1,-0.8 2.3,-1.2 3.4,-1.4c4.8,0.5 7.5,3 8.3,7.5zm-10.2,-5.4c-0.2,0.3 -0.4,0.5 -0.8,0.6l-0.1,0.3l-0.1,0.2l-1.3,1.4l-0.1,0.6l-0.3,1l0,0.4l-0.3,1l0,3.5c0.1,0.9 0.1,1.6 0.1,2.1l0.4,0.5c0.5,2.6 1.6,4.7 3.3,6.3c2.8,0.8 4.9,0.2 6.3,-1.8c0.4,-0.2 0.7,-0.4 0.9,-0.6l0,-0.4l0.3,-0.3c0.1,-0.1 0.2,-0.2 0.3,-0.3l0.4,-0.9c0.1,-0.7 0.3,-1.3 0.6,-1.9l0,-0.8c0.1,-0.8 0.2,-1.5 0.1,-2c0.3,-3.5 -0.5,-6.5 -2.4,-8.9c-1.8,-0.7 -3.5,-1 -5.2,-0.9c-0.7,0.6 -1.5,0.8 -2.1,0.9z" class="st0"/>
    <path id="svg_5" d="m94.5,1.5c0.7,0.1 1.5,0.1 2.5,0.1l0.4,0c0.4,0.1 0.8,0.1 1.4,0.1l1,0.3c0.3,0 0.7,0 1,0.1l0.4,0c0.8,0.3 1.9,0.7 3.3,1c0.5,0.4 1.1,0.7 1.9,0.9c0.9,-0.2 1.7,-0.7 2.5,-1.4l1.6,0.4c0.1,0.5 0.1,1.2 0.1,1.9l-0.1,1.5c0,0.1 0,0.3 0.1,0.4l-0.1,0.2c0,0.1 0,0.3 0,0.5l0,1.6l0,2.3l0,0.4l0,0.9c0,0.4 0,0.9 -0.1,1.5l0.1,0.4l0,2.1l-1.4,-0.4c-0.5,-0.4 -1.1,-0.8 -1.9,-1c-0.4,-0.5 -1.1,-1.2 -1.9,-1.9l-0.3,-0.3l-0.4,-0.1l-0.5,-0.3l-0.3,-0.4l-0.5,-0.4l-0.4,-0.3l-1.6,-0.5c-2.7,-0.6 -5.4,-0.4 -8.1,0.5l-0.2,1.1c-0.4,1.7 0.4,2.6 2.4,2.9l3.1,0.4l0.4,0.1c3.6,0.3 7.1,1.7 10.5,4l1,1.1c0.4,0.2 0.8,0.5 1.3,1l0.3,0.1c2.7,4.8 2.2,9.5 -1.5,14.2l-0.5,0.8c-0.5,0.2 -1,0.6 -1.3,1.1c-6.8,4.1 -14.4,4.5 -22.7,1.1c-0.7,0.2 -1.3,0.5 -1.9,1.1c-0.2,0.1 -0.5,0.2 -0.8,0.4c-0.4,0.2 -0.8,0.5 -1.3,0.9c-0.6,-0.1 -1.2,-0.4 -1.9,-0.9c0.1,-0.5 0,-1 -0.1,-1.5c0.1,-0.3 0.1,-0.6 0,-1c0,-0.5 0,-1 0,-1.6l0.1,-0.4l-0.1,-0.2l0.1,-0.6l-0.1,-1l0.1,-0.5c0,-0.4 0,-0.9 -0.1,-1.4c0,-0.5 0,-1 0.1,-1.3l-0.1,-0.5l0.1,-0.8l0,-0.9l-0.1,-0.7c0.1,-0.4 0.1,-0.9 0,-1.5l0.1,-0.3l0,-0.9l1.6,0.6c1,1 2.3,1.8 3.9,2.3c4.1,2.8 8.8,3.7 14.1,2.8c0.5,-0.3 1.1,-0.8 1.6,-1.5c0.5,-1.2 0.3,-2.3 -0.6,-3.4l-1.6,-0.3l-0.4,0l-0.4,0l-0.3,-0.1c-3.9,0.3 -7.6,-0.8 -11.2,-3.3c-2.3,-1 -4.2,-2.6 -5.9,-4.9c-0.5,-1.1 -0.7,-2.4 -0.6,-3.8c0,-7.2 4.8,-11.5 14.2,-12.8zm-1.2,0.5c-4.7,0.7 -8.6,3.1 -11.7,7.4c-0.1,0.7 -0.3,1.4 -0.8,2.3l0,2.3c-0.1,1.2 0.1,2.6 0.5,4l0.5,0.4c0.9,1.3 2.1,2.5 3.7,3.4l0.3,0.4l2.8,1l0.9,0.4l0.5,0l0.5,0.3l0.5,0.1c0.5,0 1.2,0.1 2,0.3l0.4,0l0.4,0.1l0.2,0l0.4,0.1l0.4,0l0.4,0.1c0.7,0 1.4,0 2.3,0.3l0.5,-0.1c0.6,0.1 1.3,0.4 2.1,0.8c0.1,0.1 0.3,0.1 0.5,0.1c1.4,1.1 1.9,2.6 1.5,4.5c-0.4,0.6 -1.1,1.2 -1.9,1.9c-5.9,1.1 -11.6,-0.3 -17.1,-4c-0.4,-0.1 -0.9,-0.4 -1.4,-0.8l-1,-0.4c-0.1,0.8 -0.1,1.8 0,2.9l0,0.4l-0.1,0.4l0.1,1.3l0,1.4l0,1.3l-0.1,0.8l0.1,1.4l0,0.2l0,2.1l0,0.9c0.9,-0.1 1.7,-0.5 2.4,-1.1c0.7,-0.2 1.3,-0.5 1.9,-1.1c0.1,0 0.2,0 0.3,-0.1l0.6,0c4.8,2.1 10.2,2.7 16.2,1.9l2.3,-0.9l0.4,-0.1l0.4,-0.1l0.1,-0.3l0.9,-0.4l0.4,-0.1l0.3,-0.3l0.4,-0.1c0.8,-0.6 1.5,-1.4 2.1,-2.4l0.4,-0.1l1.4,-3.1l0.1,-0.8c1.8,-9.2 -4.1,-14.2 -17.6,-15.1c-1.8,-0.7 -2.8,-2 -3,-3.8c0.3,-0.4 0.7,-0.9 1,-1.5c5.7,-2.1 11,-0.7 15.7,4.2l1.5,0.9c0.2,-0.7 0.2,-1.6 0,-2.5c0.2,-0.6 0.2,-1.3 0.1,-2.3l0,-0.4l-0.1,-0.8c0,-0.1 0,-0.3 0,-0.4c0.1,-0.4 0.2,-1 0.3,-1.6c-0.1,-0.5 -0.2,-1.2 -0.1,-2l-0.1,-0.6l0.1,-0.9l-0.1,-0.5c-0.8,0.1 -1.5,0.5 -2.3,1.1l-0.4,0c-4,-2.2 -8.3,-3 -13,-2.7zm0.1,2.3l2.3,0.1l0.9,0l0.4,0l0.4,0.1l1.3,0l0.4,0.3l0.5,0l1,0.3l0.4,0.1l0.5,0l0.4,0.1c0.5,0.3 1.1,0.6 1.9,0.9l1.1,0.9l1.5,-0.4l0.3,0.1c-0.1,1 -0.2,2.3 -0.1,3.9c-0.3,0 -0.6,-0.2 -1,-0.4c-3.3,-3.1 -7.5,-4.2 -12.7,-3.3c-4.6,1 -6.5,3.7 -5.7,8.2l1.8,1.6l0.3,0.3c0.1,0 0.2,0.1 0.3,0.3c2,1.1 4.4,1.6 7.1,1.5c0.6,0.2 1.2,0.3 2,0.4c0.2,0.1 0.6,0.1 1,0.1l1.8,0.4l0.3,0.1l0.4,0l2.3,1l0.9,0.4c3.4,2.7 4.5,6.3 3.3,11c-0.5,0.5 -1,1.2 -1.5,2l-0.4,0.1c-0.1,0.1 -0.1,0.3 -0.1,0.5c-0.3,0.1 -0.6,0.3 -0.9,0.6c-5.8,2.8 -12,2.7 -18.5,-0.3c-1.2,0.1 -2.3,0.6 -3.3,1.6l-0.5,0l-0.7,-2.8l0.1,-0.3l-0.1,-0.4c0.1,-0.4 0.1,-0.8 0.1,-1.3c-0.1,-0.4 -0.1,-0.8 -0.1,-1.3c0.3,-0.1 0.7,-0.1 1.1,0c0.2,0.3 0.4,0.7 0.8,1.1l0.6,0.1c3.6,2.1 7.8,3.1 12.6,2.8c1.6,0.1 3.1,-0.4 4.5,-1.4c2.1,-0.9 3.3,-2.8 3.4,-5.7c-1.5,-4.2 -5.2,-6.3 -11.1,-6c-0.6,0 -1.2,-0.1 -2,-0.4l-0.4,0l-0.3,0l-0.9,-0.1c-0.5,-0.3 -1.2,-0.6 -2,-0.8l-0.9,-0.3c-0.4,-0.4 -0.9,-0.8 -1.5,-1.1c-4.8,-4.8 -3.8,-9.3 3,-13.6c0.7,0 1.4,-0.3 2,-0.6c0.6,0 1.1,-0.2 1.7,-0.4z" class="st0"/>
    <path id="svg_6" d="m130.6,1.5c0.7,0.1 1.5,0.1 2.5,0.1l0.4,0c0.4,0.1 0.8,0.1 1.4,0.1l1,0.3c0.3,0 0.7,0 1,0.1l0.4,0c0.8,0.3 1.9,0.7 3.3,1c0.5,0.4 1.1,0.7 1.9,0.9c0.9,-0.2 1.7,-0.7 2.5,-1.4l1.6,0.4c0.1,0.5 0.1,1.2 0.1,1.9l-0.1,1.5c0,0.1 0,0.3 0.1,0.4l-0.1,0.2c0,0.1 0,0.3 0,0.5l0,1.6l0,2.3l0,0.4l0,0.9c0,0.4 0,0.9 -0.1,1.5l0.1,0.4l0,2.1l-1.4,-0.4c-0.5,-0.4 -1.1,-0.8 -1.9,-1c-0.4,-0.5 -1.1,-1.2 -1.9,-1.9l-0.3,-0.3l-0.4,-0.1l-0.5,-0.3l-0.3,-0.4l-0.5,-0.4l-0.4,-0.3l-1.6,-0.5c-2.7,-0.6 -5.4,-0.4 -8.1,0.5l-0.4,0.9c-0.4,1.7 0.4,2.6 2.4,2.9l3.1,0.4l0.4,0.1c3.6,0.3 7.1,1.7 10.5,4l1,1.1c0.4,0.2 0.8,0.5 1.3,1l0.3,0.1c2.7,4.8 2.2,9.5 -1.5,14.2l-0.5,0.8c-0.5,0.2 -1,0.6 -1.3,1.1c-6.8,4.1 -14.4,4.5 -22.7,1.1c-0.7,0.2 -1.3,0.5 -1.9,1.1c-0.2,0.1 -0.5,0.2 -0.8,0.4c-0.4,0.2 -0.8,0.5 -1.3,0.9c-0.6,-0.1 -1.2,-0.4 -1.9,-0.9c0.1,-0.5 0,-1 -0.1,-1.5c0.1,-0.3 0.1,-0.6 0,-1c0,-0.5 0,-1 0,-1.6l0.1,-0.4l-0.1,-0.4l0.1,-0.6l-0.1,-0.9l0.1,-0.5c0,-0.4 0,-0.9 -0.1,-1.4c0,-0.5 0,-1 0.1,-1.3l-0.1,-0.6l0.1,-0.8l0,-0.9l-0.1,-0.8c0.1,-0.4 0.1,-0.9 0,-1.5l0.1,-0.3l0,-0.9l1.6,0.6c1,1 2.3,1.8 3.9,2.3c4.1,2.8 8.8,3.7 14.1,2.8c0.5,-0.3 1.1,-0.8 1.6,-1.5c0.5,-1.2 0.3,-2.3 -0.6,-3.4l-1.6,-0.3l-0.4,0l-0.4,0l-0.4,-0.1c-3.9,0.3 -7.6,-0.8 -11.2,-3.3c-2.3,-1 -4.2,-2.6 -5.9,-4.9c-0.5,-1.1 -0.7,-2.4 -0.6,-3.8c0.3,-6.7 5.1,-11 14.5,-12.3zm-1.3,0.5c-4.7,0.7 -8.6,3.1 -11.7,7.4c-0.1,0.7 -0.3,1.4 -0.8,2.3l0,2.3c-0.1,1.2 0.1,2.6 0.5,4l0.5,0.4c0.9,1.3 2.1,2.5 3.7,3.4l0.3,0.4l2.8,1l0.9,0.4l0.5,0l0.5,0.3l0.5,0.1c0.5,0 1.2,0.1 2,0.3l0.4,0l0.4,0.1l0.4,0l0.4,0.1l0.4,0l0.4,0.1c0.7,0 1.4,0 2.3,0.3l0.5,-0.1c0.6,0.1 1.3,0.4 2.1,0.8c0.1,0.1 0.3,0.1 0.5,0.1c1.4,1.1 1.9,2.6 1.5,4.5c-0.4,0.6 -1.1,1.2 -1.9,1.9c-5.9,1.1 -11.6,-0.3 -17.1,-4c-0.4,-0.1 -0.9,-0.4 -1.4,-0.8l-1,-0.4c-0.1,0.8 -0.1,1.8 0,2.9l0,0.4l-0.1,0.4l0.1,1.3l0,1.4l0,1.3l-0.1,0.8l0.1,1.4l0,0.2l0,2.1l0,0.9c0.9,-0.1 1.7,-0.5 2.4,-1.1c0.7,-0.2 1.3,-0.5 1.9,-1.1c0.1,0 0.2,0 0.3,-0.1l0.6,0c4.8,2.1 10.2,2.7 16.2,1.9l2.3,-0.9l0.4,-0.1l0.4,-0.1l0.1,-0.3l0.9,-0.4l0.4,-0.1l0.3,-0.3l0.4,-0.1c0.8,-0.6 1.5,-1.4 2.1,-2.4l0.4,-0.1l1.4,-3.1l0.1,-0.8c1.8,-9.2 -4.1,-14.2 -17.6,-15.1c-1.8,-0.7 -2.8,-2 -3,-3.8c0.3,-0.4 0.7,-0.9 1,-1.5c5.7,-2.1 11,-0.7 15.7,4.2l1.5,0.9c0.2,-0.7 0.2,-1.6 0,-2.5c0.2,-0.6 0.2,-1.3 0.1,-2.3l0,-0.4l-0.1,-0.8c0,-0.1 0,-0.3 0,-0.4c0.1,-0.4 0.2,-1 0.3,-1.6c-0.1,-0.5 -0.2,-1.2 -0.1,-2l-0.1,-0.6l-0.2,-1l-0.1,-0.5c-0.8,0.1 -1.5,0.5 -2.3,1.1l-0.4,0c-3.8,-2.1 -8.1,-2.9 -12.9,-2.6zm0.2,2.3l2.3,0.1l0.9,0l0.5,0l0.4,0.1l1.3,0l0.4,0.3l0.5,0l1,0.3l0.4,0.1l0.5,0l0.4,0.1c0.5,0.3 1.1,0.6 1.9,0.9l1.1,0.9l1.5,-0.4l0.3,0.1c-0.1,1 -0.2,2.3 -0.1,3.9c-0.3,0 -0.6,-0.2 -1,-0.4c-3.3,-3.1 -7.5,-4.2 -12.7,-3.3c-4.6,1 -6.5,3.7 -5.7,8.2l1.8,1.6l0.3,0.3c0.1,0 0.2,0.1 0.3,0.3c2,1.1 4.4,1.6 7.1,1.5c0.6,0.2 1.2,0.3 2,0.4c0.2,0.1 0.6,0.1 1,0.1l1.8,0.4l0.3,0.1l0.4,0l2.3,1l0.9,0.4c3.4,2.7 4.5,6.3 3.3,11c-0.5,0.5 -1,1.2 -1.5,2l-0.4,0.1c-0.1,0.1 -0.1,0.3 -0.1,0.5c-0.3,0.1 -0.6,0.3 -0.9,0.6c-5.8,2.8 -12,2.7 -18.5,-0.3c-1.2,0.1 -2.3,0.6 -3.3,1.6l-0.5,0l-0.3,-2.9l0.1,-0.3l-0.1,-0.4c0.1,-0.4 0.1,-0.8 0.1,-1.3c-0.1,-0.4 -0.1,-0.8 -0.1,-1.3c0.3,-0.1 0.7,-0.1 1.1,0c0.2,0.3 0.4,0.7 0.8,1.1l0.6,0.1c3.6,2.1 7.8,3.1 12.6,2.8c1.6,0.1 3.1,-0.4 4.5,-1.4c2.1,-0.9 3.3,-2.8 3.4,-5.7c-1.5,-4.2 -5.2,-6.3 -11.1,-6c-0.6,0 -1.2,-0.1 -2,-0.4l-0.4,0l-0.4,0l-0.9,-0.1c-0.5,-0.3 -1.2,-0.6 -2,-0.8l-0.9,-0.5c-0.4,-0.4 -0.9,-0.8 -1.5,-1.1c-4.8,-4.8 -3.8,-9.3 3,-13.6c0.7,0 1.4,-0.3 2,-0.6c0.2,0.3 0.7,0.1 1.3,-0.1z" class="st0"/>
    <path id="svg_7" d="m152.6,1.5c0.4,0 0.8,0 1.3,0.1l1.4,0l0.4,0l1,0l0.6,0l2.1,0.1l0.5,-0.1l0.5,0l0.5,0l0.5,0l0.9,0l1,0.1l2.1,0l0.4,0l0.4,0l0.4,0.1l0.9,-0.1l0.8,0l0.9,0.1c0.2,0.4 0.6,0.7 1,1.1c-0.1,0.3 -0.3,0.5 -0.6,0.9c-0.1,0.3 -0.3,0.6 -0.6,1c0.2,0.8 0.5,1.8 1.1,2.9l0,0.4l0.3,0.1l0.5,1.4l0.1,0.5l0.4,0.3c0.3,0.9 0.7,2 1.4,3.3l0.1,0.5l0.8,1.4l0.1,0.8c0.3,0.3 0.5,0.8 0.6,1.3l0.3,0.3c0.7,-0.8 1.2,-1.8 1.6,-3.1c0.3,-0.4 0.5,-0.8 0.6,-1.4c0.5,-0.6 0.9,-1.4 1.1,-2.4c0.6,-0.8 1.1,-1.8 1.4,-3l0.3,-0.1c0.1,-0.5 0.4,-1.1 0.8,-1.8c0,-0.8 -0.3,-1.6 -0.9,-2.4l-0.5,-1.3l-0.1,-0.5l2.4,-0.1l0.4,0.1c0.3,0 0.6,0 0.9,-0.1c0.4,0.1 0.9,0.1 1.4,0l0.6,0.1l0.6,0l0.6,0l0.5,0.1l0.6,0c0.4,-0.1 0.9,-0.1 1.5,0l1,0l0.4,0l0.5,0l1.6,-0.1l0.4,0.1c0.6,-0.1 1.3,-0.1 2.1,0l0.6,0l0.8,0.3c0.1,0.3 0.2,0.7 0.5,1.1c-0.7,0.5 -1.3,1.3 -1.8,2.3c0,0.3 0,0.7 0.1,1.1c-0.1,0.6 -0.2,1.3 -0.1,2.1l0,0.4l0,0.4l0,0.5l-0.1,0.4l0,0.6l0,2.3l0,0.5c0.1,0.7 0,1.4 -0.1,2.4l0.1,0.5l0,0.6l0,0.5c0,0.6 0,1.3 -0.1,2.1l0.1,0.8l0,0.9l-0.1,2.5l0.3,0.8l-0.3,1.1l0.1,0.9c-0.1,0.6 -0.2,1.2 -0.1,2l0,0.4l0,0.4l0,1.5l0,0.4l0.1,0.9l-0.1,0.4l0,0.5l0,1.3l0,1.1l0,1.1c0.3,0.7 0.7,1.4 1.4,2.1c0.2,0.3 0.3,0.7 0.4,1.1l0.4,0.3l0.3,0.5l0.1,0.5l-1.5,0.1l-0.5,0l-2.1,0l-0.5,0c-0.5,-0.1 -1.2,-0.1 -1.9,0l-0.4,0l-0.9,-0.1l-0.4,0l-0.4,0l-0.4,0l-0.4,0l-1.3,0l-0.3,0l-0.5,0l-0.4,0l-0.6,0l-0.5,0l-0.5,-0.1l-0.8,0.1l-0.5,0l-0.5,-0.3c0,-0.4 -0.1,-0.8 -0.5,-1.3c0.2,-0.4 0.4,-0.8 0.8,-1.3l0.8,-1.4c0.1,-0.7 0.1,-1.6 0,-2.5c0.1,-0.4 0.1,-0.8 0.1,-1.3l0,-2.3l-0.1,-0.4l0.1,-0.5c-0.1,-0.5 -0.1,-1.1 -0.1,-1.8l-0.1,-0.5c0,-0.1 0,-0.3 0,-0.5c-0.7,0.9 -1.1,2 -1.4,3.3l-0.4,0.3l0,0.4c-0.4,0.4 -0.6,1 -0.8,1.6l-0.3,0.1l-0.1,0.6c-0.2,0.4 -0.4,0.8 -0.5,1.3c-0.3,0.3 -0.5,0.8 -0.5,1.3l-0.4,0.1c0,1.2 0.5,2.3 1.4,3.3c0,0.4 0.2,0.8 0.5,1.1l0,0.4c-0.6,0.1 -1.2,0.1 -2,0c-0.3,0 -0.6,0 -1,0l-0.4,0l-0.4,0l-0.6,0l-0.4,0.1l-0.5,0l-0.4,-0.1l-1.6,0.1l-0.3,-0.1c-0.6,0.1 -1.3,0.1 -2.1,0l-0.5,0l-0.4,-0.3c-0.1,-0.5 -0.4,-1 -0.8,-1.4l0,-0.4c0.6,-0.7 1,-1.6 1.1,-2.8c-0.4,-0.6 -0.8,-1.3 -1,-2.3l-0.4,-0.3c-0.1,-0.9 -0.5,-1.9 -1,-3l-0.4,-0.6c-0.1,-0.5 -0.3,-0.9 -0.6,-1.4c0,-0.2 -0.1,-0.4 -0.3,-0.5c-0.1,-0.4 -0.3,-1 -0.5,-1.6l-0.4,0.3l0,2.3l0,0.4c-0.1,0.5 -0.1,1.1 0,1.8l-0.1,0.4l0.1,0.6l0,0.5l-0.1,0.5c0,0.5 0,1 0.1,1.6l0,0.6l0,0.6l0.4,0.1c0.1,0.9 0.6,1.7 1.4,2.4l0.3,1l0.3,0.3l0,0.8l0.3,0.3l0.3,0.4l-2.3,0.1c-0.1,-0.1 -0.3,-0.1 -0.4,0c-0.3,-0.1 -0.6,-0.1 -1,-0.1l-2.3,0l-0.5,0l-0.4,0l-0.5,0l-0.3,-0.1l-0.9,0.1l-1.7,0l-0.4,0.1c-0.6,-0.2 -1.2,-0.3 -2,-0.1l-0.8,0l-0.6,0l-0.8,-0.1l-0.6,-0.1c0,-0.5 -0.3,-1 -0.6,-1.6c0.1,-0.3 0.3,-0.6 0.6,-0.9l0.1,-0.4c0.3,-0.4 0.5,-0.8 0.8,-1.4l0.3,-0.4c-0.1,-0.7 0,-1.6 0.1,-2.8c0,-0.4 0,-0.8 -0.1,-1.3l0,-0.5l0.1,-1.4l-0.1,-1.8l0.1,-0.3l0,-0.7l0,-0.4l-0.1,-0.6c0.2,-0.9 0.2,-2.2 0,-3.7l0.1,-0.4l0,-0.6l-0.1,-0.9l0.1,-1.8c0,-0.5 0,-1.2 0,-2l0,-1l0.1,-0.4l-0.1,-0.3l0,-5.7c0,-0.4 0,-0.9 0,-1.5l0.1,-0.4c-0.1,-0.6 -0.2,-1.2 -0.1,-2l0,-1.6c-0.4,-0.7 -0.9,-1.4 -1.8,-2.1c0,-0.1 0,-0.2 -0.1,-0.3l0.4,-0.8zm0.5,0.7c0.2,0.9 0.7,1.7 1.5,2.4l0,1.6l0,0.4l0.1,0.3l-0.1,0.3l0,1c0.1,0.5 0,1 -0.1,1.5l0.1,0.3l0,2l0,1.6l0,0.6l0,3.9l0,0.4l0,0.4c0,0.5 0,1.1 -0.1,1.9c0.1,0.6 0.2,1.3 0.1,2.1l0,0.4l0,0.4l0,0.5l0,0.4l0,1l0,1.1c0,0.3 0,0.6 -0.1,1l0.1,1.1c0,0.3 0,0.6 0,1c-0.1,0.3 -0.1,0.6 0,1c-0.1,0.6 -0.1,1.4 0,2.3l0,0.9l0,0.5l0,0.5l-0.1,0.4l0.1,1c-0.2,0.7 -0.6,1.5 -1.1,2.4l-0.1,0.3c0.9,0.3 1.8,0.4 2.8,0.3c0.7,0.1 1.5,0.1 2.5,0l0.4,0.1l0.5,0l0.4,-0.1l0.4,0.1l1.3,0c0.1,0 0.3,0 0.4,-0.1c0.6,0.1 1.3,0.2 2.1,0.1l0.5,0l0.6,0c-0.3,-0.7 -0.7,-1.4 -1.4,-2.1c0,-0.1 0,-0.3 -0.1,-0.4l-0.3,-0.4c0.3,-0.8 0.3,-1.7 0,-2.6c0.3,-0.9 0.4,-1.9 0.1,-3l0.1,-0.9c0,-0.7 0,-1.7 0,-3l0.1,-0.6l0,-1.5l0.1,-0.8l-0.3,-0.5c0.1,-0.4 0.1,-0.9 0,-1.5l0.1,-0.5c0.6,0.7 0.9,1.5 1.1,2.5l0.4,0.1l0.1,0.5c0.1,1 0.6,2.1 1.4,3.3c0,0.7 0.3,1.3 0.8,2l0.1,0.5l0.1,0.5c0.5,0.5 0.8,1.1 0.9,1.8l0.4,0.3c0,0.4 0.1,0.8 0.4,1.3l0.6,2l0.5,0.6c-0.2,0.4 -0.4,1 -0.5,1.8l-0.3,0.1l0,0.4c0.7,0.2 1.6,0.2 2.5,0.1c0.7,0.1 1.5,0.1 2.5,0.1l0.4,0l1.4,0l0.4,0l0.3,-0.1c-0.2,-0.5 -0.5,-1.1 -1,-1.8l0,-0.8c0.5,-0.7 1.1,-1.8 1.6,-3.1l0.3,-0.9l0.1,-0.3c0.4,-0.6 0.8,-1.3 1,-2.1c0.1,-0.4 0.3,-0.8 0.6,-1.3l0.1,-0.5l0.4,-0.5l0.1,-0.5c0.1,-0.2 0.2,-0.4 0.4,-0.6c0.1,-0.5 0.3,-0.9 0.6,-1.4l0,-0.4c0.4,-0.5 0.7,-1.1 0.9,-1.8l0.3,-0.6c0.2,0 0.4,0.1 0.5,0.3c-0.1,0.4 0,0.9 0.1,1.5c0,0.2 0,0.5 0.1,0.8l-0.1,0.9c-0.1,0.8 -0.1,1.7 0.1,2.6l0,0.4l0,0.4c-0.1,0.5 -0.2,1.2 -0.3,2l0.1,0.6l0,1.8l0,0.6l0.1,0.6l0,0.6l-0.3,0.6c0,1 -0.3,1.9 -1,2.9c0.8,0.2 1.8,0.2 2.9,0.1l0.4,0l0.4,0l0.4,0l0.1,0l-0.1,0l0.3,0l-0.1,0l0.3,0l-0.1,0l0.3,0l-0.1,0l0.3,0l-0.1,0l0.1,0l0.5,0.1l0.1,0l-0.1,0l0.1,0c0.4,0 0.9,0 1.4,-0.1l0.4,0c0.5,0.1 1.2,0.1 2,0.1l0.6,0l0.4,0l0.4,0l0.4,0.1l0.4,-0.1l0.6,0.1l0.4,-0.3c-0.3,-0.8 -0.9,-1.6 -1.8,-2.4c0,-0.1 0,-0.2 -0.1,-0.3l-0.1,-1.1c0.1,-0.4 0.1,-0.8 0.1,-1.3l0,-0.4l-0.1,-0.4l0.1,-0.4l-0.1,-0.4c0.1,-0.3 0.1,-0.6 0,-0.9c0,-0.2 0,-0.5 0,-0.8c0.1,-0.4 0.1,-0.9 0,-1.5c0,-0.2 0,-0.6 0,-1c0.1,-0.6 0.2,-1.2 0.1,-2c0,-0.4 0,-0.9 0,-1.5l0,-0.4c0,-0.6 0,-1.3 0,-2.1c0.1,-0.1 0.1,-0.3 0,-0.5l0.1,-0.8l-0.1,-0.8l0.1,-0.9l-0.1,-1.1l0,-1.3l0,-0.9c0.1,-0.6 0.1,-1.3 0,-2.1l0.3,-0.1l0,-0.1c-0.2,-0.7 -0.2,-1.6 -0.1,-2.6l-0.1,-0.4l0,-1.2l0.1,-0.3l-0.1,-0.5l0.1,-0.8l0,-2.6c0.3,-0.3 0.6,-0.7 0.9,-1.3c0.6,-0.4 0.9,-0.9 1,-1.6c-0.5,0 -1,0 -1.6,0l-0.4,0l-0.3,-0.1l-0.5,0l-0.6,0l-0.4,0l-0.6,0l-0.4,0l-0.9,0c-0.5,0 -1.2,0 -2,-0.1l-0.3,0.1l-0.5,0c-0.8,-0.1 -1.8,-0.1 -2.9,0l-0.4,0l-1.3,-0.1l-0.3,0.1l-0.5,-0.1l-0.4,0.1l-0.9,0c0.1,0.9 0.6,1.8 1.4,2.6c-0.1,0.6 -0.4,1.3 -0.8,2l0,0.4l-0.5,0.5l0,0.4l-0.3,0.1l0.1,0.4l-0.6,1.4l-0.1,0.4c-0.4,0.5 -0.7,1.2 -0.9,2l-0.4,0.5l-0.3,0.6l-0.3,0.5l-0.4,0.8c-0.1,0.3 -0.3,0.7 -0.5,1.1l-0.1,0.3l-0.1,0.4l-0.4,0.6c-0.3,0.6 -0.6,1.3 -0.9,2.1c-0.3,0.3 -0.7,0.5 -1.1,0.6c0,-0.3 -0.1,-0.6 -0.4,-0.8c-0.2,-1.2 -0.7,-2.3 -1.5,-3.4c-0.2,-0.8 -0.5,-1.8 -1.1,-2.8l-0.1,-0.3l-0.3,-0.6l-0.3,-0.4l-0.3,-0.5l0.1,-0.5c-0.3,-0.3 -0.6,-0.7 -0.9,-1.3c-0.2,-0.6 -0.5,-1.3 -0.9,-2c0,-0.4 -0.1,-0.7 -0.4,-1l-0.4,-0.6l-0.4,-0.9c0.3,-0.4 0.6,-0.9 0.8,-1.5c0.1,0 0.2,-0.1 0.3,-0.3c0.3,-0.3 0.5,-0.7 0.6,-1.1c-0.3,0 -0.6,0 -1,-0.1l-0.4,0l-0.9,0l-0.4,0l-0.4,-0.1l-0.4,0.1l-0.4,0l-1,0l-1.3,0l-0.4,-0.1l-1.6,0.1c-0.1,-0.1 -0.3,-0.1 -0.5,0l-0.6,-0.1l-1.6,0l-0.9,0l-1.1,0l-0.8,0l-0.4,0l-0.9,0l0,0.1zm31.5,2.6c0.7,0.2 1.7,0.3 2.8,0.4c0.9,-0.3 1.8,-0.3 2.9,0c-0.4,0.5 -0.7,1.1 -0.8,1.8l0,2.8l0,0.4l0,0.5l0.1,0.4c-0.1,0.1 -0.1,0.3 0,0.4c-0.1,0.5 -0.1,1 0,1.6c-0.1,0.4 -0.1,0.9 0,1.4c-0.2,0.9 -0.2,1.8 0,2.8c-0.1,0.4 -0.1,0.9 -0.1,1.5l0,1c-0.1,0.9 -0.1,1.9 0.1,3.1c-0.1,0.1 -0.1,0.3 0,0.4l-0.1,0.5l0,0.9l0,2.5l0,2l0,0.4l0,0.4c0,0.4 0,0.9 -0.1,1.5l0.1,0.4l-0.1,0.3l0,0.4l0.1,0.8l-0.1,0.8c-0.1,0.7 0,1.4 0.3,2.3l-0.1,0.9c-0.8,-0.2 -1.7,-0.2 -2.8,0l-0.4,-0.1c0.3,-0.9 0.3,-1.9 0.1,-3c0.1,-0.6 0.1,-1.2 0,-1.9c0.1,-0.4 0.1,-0.9 0,-1.5c0.1,-0.3 0.1,-0.7 0,-1.1l0.1,-1.6l0,-0.9l0,-0.5c0.1,-0.5 0,-1.1 -0.1,-1.8c0.1,-0.7 0.1,-1.5 0.1,-2.5l0,-0.8c0,-0.4 0,-0.7 -0.1,-1l0.1,-0.4l-0.1,-0.4c0,-0.1 0,-0.3 0,-0.4l0.3,-0.9c-0.1,-0.4 -0.2,-0.9 -0.1,-1.5l-0.1,-0.3l0.3,-2.1l-0.3,-0.8c0.1,-0.6 0.1,-1.2 0,-1.9l0.1,-0.3l0,-0.9c0,-0.2 0,-0.5 -0.1,-0.8l0.1,-1.6l-0.7,0.1c-0.1,0.6 -0.4,1.3 -0.9,1.9l-0.1,0.8l-0.5,0.8l0,0.4l-0.4,0.1c-0.2,1 -0.7,2.1 -1.4,3.3l-0.5,1.3l-0.3,0.4c-0.1,0.5 -0.3,1 -0.8,1.5l-0.1,0.6c-0.3,0.5 -0.5,1 -0.8,1.8l-0.3,0.6c-0.3,0.4 -0.6,1 -0.9,1.8l-0.1,0.3l-0.3,0.8l-0.4,0.8c0,0.3 -0.2,0.5 -0.4,0.8l-0.3,0.9l-0.5,0.8c0,0.3 -0.1,0.5 -0.4,0.9l-0.5,0.9c-0.1,0.6 -0.3,1.2 -0.6,2c0,0.1 0,0.3 0,0.4c-0.7,0.8 -1.2,1.9 -1.6,3.3l-0.1,0.3l-0.6,0c-0.3,-0.4 -0.4,-0.9 -0.5,-1.5c-0.2,-0.2 -0.3,-0.5 -0.4,-0.8l-0.5,-0.6l-0.1,-0.4c-0.1,-0.7 -0.4,-1.4 -0.9,-2c0,-0.3 -0.1,-0.6 -0.4,-1l-0.1,-0.4c0,-0.1 -0.1,-0.2 -0.3,-0.3l-0.1,-0.6l-0.4,-0.5l-0.3,-0.9l-0.3,-0.6l-0.4,-0.5l-0.3,-0.8l-0.4,-0.8l-0.4,-0.5c-0.2,-1.1 -0.7,-2.3 -1.4,-3.5l-0.9,-2.4l-0.3,-0.3c-0.2,-0.7 -0.5,-1.5 -1,-2.4l-0.1,-0.4l-0.3,-0.9l-0.5,-0.4c-0.1,-0.6 -0.4,-1.2 -0.9,-1.9c-0.2,-0.7 -0.5,-1.4 -0.9,-2.4l-0.9,-0.4c-0.2,1.2 -0.3,2.6 -0.1,4.4l0,0.4l-0.1,0.9l0,0.4l0.1,0.5l-0.1,0.5l0.1,0.5l-0.1,0.6l0,1.6c-0.1,0.5 -0.1,1.1 0,1.8c0,0.5 0,1.2 -0.1,2l0.1,0.6l0,0.8c-0.1,0.6 -0.1,1.2 0.1,1.9c-0.1,0.5 -0.2,1 -0.1,1.6c0,0.4 0,0.9 -0.1,1.5l0,0.4l0,1.8l0,0.6c0,0.5 0,1.1 0.1,1.8c-0.1,0.5 -0.2,1.3 -0.1,2.1l0,0.4l0.3,0.8l-2.3,0.1l-0.9,0.1c0,-0.1 -0.1,-0.2 -0.3,-0.3c0.4,-1.3 0.4,-2.7 0.1,-4.2c0.2,-0.8 0.2,-1.9 0.1,-3.1l0.1,-0.4l-0.1,-1l0.1,-0.5l-0.1,-0.5c0.1,-0.5 0.1,-1 0,-1.6c0.1,-0.5 0.2,-1 0.1,-1.6c0.2,-0.9 0.1,-1.9 -0.1,-3l0.1,-0.3l0,-0.8l-0.1,-0.8c0.1,-0.6 0.2,-1.3 0.1,-2.1c0,-0.1 0,-0.3 -0.1,-0.4l0.1,-0.4l-0.3,-0.5c0.2,-0.7 0.3,-1.4 0.1,-2.3c0.1,-0.5 0.2,-1.2 0.1,-2l-0.1,-0.3c0.1,-0.6 0.1,-1.2 0,-1.9c0.1,-0.3 0.1,-0.6 0.1,-1l0.1,-0.4c0,-0.7 -0.2,-1.3 -0.5,-2l0.3,-0.8c0.8,0.1 1.6,0.1 2.6,0l1,0c0.1,0 0.3,0 0.4,0l0.4,0.1c0.4,0 0.7,0 1,-0.1l0.4,0.1c0.1,0.5 0.3,0.9 0.8,1.3c0.1,0.6 0.3,1.2 0.5,1.9l0.4,0.9l0.3,0.6c0.1,0.3 0.3,0.6 0.6,1c0,0.1 0,0.2 0.1,0.3c0,0.1 0,0.3 0.1,0.4c0.1,0.4 0.3,0.9 0.6,1.4c0,0.3 0.2,0.7 0.4,1l1,2.3l0.1,0.3l0.6,1.5c0,0.1 0,0.2 0.1,0.3c0.2,0.5 0.5,1.1 0.9,1.6l0,0.4l0.4,0.6c0,0.4 0.2,0.7 0.5,1c0.1,0.4 0.2,0.7 0.5,1.1l0,0.4l0.3,0.3l0.1,0.4c0.1,0.5 0.3,1 0.8,1.5l0.3,1.1c0.3,1.1 0.7,1.5 1.3,1.3l0.6,-1.8l0.3,-0.1l0.4,-1l0.3,-0.3l0,-0.4l0.6,-1l0.3,-0.8l0.1,-0.4l0.3,-0.5l0.1,-0.6c0.5,-0.5 0.9,-1.3 1.1,-2.3l0.5,-0.9l0.1,-0.3l0.3,-0.5l0.4,-0.8l0.1,-0.6c0.2,-0.2 0.3,-0.5 0.4,-0.9c0.6,-0.7 1,-1.6 1.1,-2.6c0.4,-0.4 0.6,-0.9 0.8,-1.5l0.4,-0.4l0,-0.2l0.3,-0.3c0.1,-0.1 0.1,-0.3 0.1,-0.5l1.1,-2.1l0.1,-0.4c0.2,-0.3 0.3,-0.6 0.4,-1c0.6,-0.2 0.8,-0.4 1.1,-0.7z" class="st0"/>
    <path id="svg_8" d="m212.3,1.3c1,0.2 2.2,0.3 3.5,0.1l0.4,0l0.4,0l1,0c0.4,0.1 0.8,0.1 1.4,0c0.8,0.2 1.8,0.2 2.9,0l0.3,0c0.3,0.1 0.6,0.1 1,0.1l0.4,-0.1l0.4,0.1c0.4,0 0.8,0 1.3,-0.1l0.8,0.1l0.8,0.4c0.1,0.3 0.3,0.7 0.6,1l-0.4,1.3l0.6,1.5c0,0.6 0.3,1.2 0.6,1.8l0,0.4l0.3,0.4c0.1,0.4 0.3,0.9 0.5,1.5l0.3,0.5l0.1,0.5c0,0.2 0.1,0.4 0.3,0.6c0.1,0.5 0.2,1 0.5,1.6c0.1,0.7 0.4,1.4 0.9,2.1l0,0.8l0.4,0.5c0.1,0.5 0.3,1.2 0.6,2l0.3,0.5c0.1,0.5 0.3,1.1 0.6,1.8c0.1,0.8 0.5,1.7 1,2.6c0.1,1 0.4,2.1 1,3.1l0.1,0.4c0.1,0.6 0.4,1.3 0.8,2l-0.1,0.3l0.3,0.1c0,0.4 0.2,0.9 0.5,1.5l0.3,0.8l0,0.4l0.6,1.5l0.1,0.3c0,0.4 0.2,0.8 0.5,1.3l0,0.5c0.3,0.5 0.5,1 0.6,1.6l0.3,0.1l0.3,0.5l0.1,0.6l0.3,0.5c0.2,0 0.4,0 0.5,0.1l0,0.9l0.9,1c0.2,0.4 0.4,0.8 0.5,1.4l-2.8,0.1l-0.4,0l-0.5,0l-0.4,0l-0.4,-0.1l-0.4,0.1l-1.8,0c-0.5,0.1 -1,0 -1.6,-0.1l-1.6,0l-0.4,0l-0.4,0l-0.3,-0.1l-0.3,0.1l-0.5,0l-0.8,0l-2.1,0l-1,0c-0.2,-0.5 -0.5,-1 -1,-1.5c0.1,-0.6 0.4,-1.2 0.9,-1.8c0,-0.3 0.1,-0.6 0.4,-0.9c0,-0.9 -0.3,-1.8 -0.8,-2.8c-0.1,-0.4 -0.2,-0.9 -0.5,-1.4c-0.4,0.1 -0.7,-0.1 -1,-0.4l-0.3,0.4l-2.3,0l-0.4,0l-0.4,0c-0.4,0 -0.7,-0.1 -1,-0.1l-0.5,0c-0.4,0 -0.8,0 -1.3,0l-1.4,0l-0.5,0l-0.8,0c-0.6,0.8 -0.9,1.8 -1,2.9c-1.1,1.5 -1.1,3.3 -0.1,5.2c-0.7,0.1 -1.6,0.2 -2.6,0.1c-0.3,-0.1 -0.6,-0.1 -1,-0.1l-1.4,0l-0.5,0l-1.6,0c-0.4,0 -0.8,0 -1.3,-0.1l-0.8,0.1l-0.8,-0.1c-0.4,0 -0.9,0 -1.5,0.1l-0.3,-0.1l-0.6,0.1l-0.9,0l-0.6,-0.1c-0.1,-0.5 -0.4,-1.1 -0.8,-1.6c0.3,-0.5 0.8,-1 1.4,-1.4l0.3,-0.4l0.1,-0.3l0.3,-0.3l0.9,-1.1l0.9,-3.1l0.1,-0.5l0.1,-0.4c0.2,-0.4 0.4,-0.9 0.5,-1.5l0.1,-0.3l0.1,-0.4l0.1,-0.3l0.3,-0.6l0.1,-0.9c0.1,-0.1 0.1,-0.3 0.1,-0.5l0.4,-0.5l0.3,-0.6l0.1,-0.6c0.3,-0.6 0.4,-1.3 0.5,-2.1l0.3,-0.3l0.1,-0.3l0.1,-0.6l0.8,-2c0.1,-0.6 0.4,-1.3 0.8,-2.1l0.3,-0.9c0.3,-0.7 0.5,-1.4 0.6,-2.3l0.3,-0.3l0.4,-1.6l0,-0.4c0.1,-0.1 0.2,-0.2 0.3,-0.4l0.1,-0.4l0.1,-0.3l0.1,-0.5l0.5,-1l0.1,-0.4l0.1,-0.5l0.1,-0.4l0.1,-0.5l0.6,-1.9l0,-0.1l0.1,-0.3l0.4,-0.9l0.1,-0.9c-0.1,-1.1 -0.5,-2.3 -1.3,-3.5l1.2,-0.2zm0.1,0.6c0,0.9 0.3,1.9 0.8,2.9l0,0.4c-0.5,0.9 -0.9,2.2 -1.3,3.8l-0.3,0.4l-0.1,0.4c0,0.4 -0.2,0.9 -0.5,1.4l-0.1,0.8c-0.1,0.7 -0.4,1.3 -0.8,1.9l-0.1,0.8l-0.4,0.9l-0.3,0.8l-0.3,0.6l-0.1,0.9l-0.4,0.8l-0.3,1l-0.3,0.8l-0.6,1.6l-0.1,0.4l-0.3,1l-0.1,0.4l-0.1,0.4l-0.3,0.4l0,0.5c-0.1,0.3 -0.3,0.5 -0.4,0.9l-0.3,0.9c-0.3,0.6 -0.5,1.4 -0.6,2.3l-0.5,0.9l-0.1,0.9l-1,2.4l-0.1,0.9l-0.4,0.9l-0.1,0.9l-0.3,0.9l-0.4,0.9c-0.6,0.5 -1.1,1.2 -1.5,2l0.9,0.3c0.4,0 1,0 1.6,0.1l0.9,-0.1l0.4,0l0.5,0c0.3,0.1 0.6,0.1 1,0c0.5,0.1 0.9,0.1 1.4,0.1l2.3,0l0.5,0l1.6,0l0.5,0c0,-0.6 -0.1,-1.3 -0.4,-2.3l0,-0.5c0.3,-0.6 0.5,-1.4 0.5,-2.3l0.3,-0.1c0.1,-0.3 0.2,-0.7 0.4,-1.1l0,-0.4l0.3,-0.3l0,-0.4l0.1,-0.5l0.3,-0.4l2.3,0l0.5,0l0.4,0l0.5,0l0.4,0.1c0.4,-0.1 0.8,-0.1 1.3,0l0.4,-0.1l0.6,0.1l0.6,-0.1l0.4,0.1l0.5,0l0.8,-0.1c0.6,0.1 1.3,0.1 2.1,0.1c0.4,0.7 0.8,1.7 1.1,2.9c0,0.1 0.1,0.2 0.3,0.3l0,0.4l0.1,0.4l0.1,0.4l0.3,0.5l0.3,0.4l0.3,0.5c-0.5,0.7 -0.8,1.6 -0.9,2.6c0.4,0 0.9,0 1.5,-0.1l0.4,0.1l2.1,0l0.6,0c0.4,0 0.7,0 1,0.1l0.5,-0.1l0.6,0.1l0.5,-0.1l0.8,0.1c0.5,0 1.1,0 1.8,-0.1c0.6,0.1 1.3,0.1 2.1,0c-0.2,-0.7 -0.7,-1.4 -1.3,-2.1l-0.4,-0.9c-0.1,-0.8 -0.5,-1.6 -1,-2.5c0,-0.3 0,-0.5 -0.1,-0.9l-0.3,-0.3l-0.1,-1l-0.4,-0.4l-0.1,-1l-0.3,-0.3l0,-0.5c-0.3,-0.4 -0.5,-1 -0.6,-1.8c0,-0.1 -0.1,-0.2 -0.3,-0.3c-0.1,-0.4 -0.1,-0.7 -0.3,-0.9l-0.1,-0.6c-0.2,-0.5 -0.4,-1.1 -0.8,-1.8c-0.2,-0.9 -0.6,-2.1 -1.1,-3.5c-0.3,-0.7 -0.6,-1.6 -0.8,-2.6c-0.2,-0.2 -0.3,-0.4 -0.4,-0.8l-0.4,-0.8l-0.9,-2.8l-0.3,-0.9l-0.1,-0.9l-0.3,-0.9l-0.4,-0.8l-0.3,-0.9c0,-0.3 -0.1,-0.6 -0.4,-0.9l-0.1,-0.9c-0.4,-0.6 -0.7,-1.4 -1,-2.4c-0.2,-0.6 -0.5,-1.2 -1,-1.8c0.6,-0.7 0.9,-1.5 0.8,-2.5c-0.3,0 -0.7,0 -1.1,-0.1l-2.1,0.1l-0.5,-0.1c-0.5,0.1 -1.1,0.1 -1.8,0.1l-2.3,-0.1l-0.9,0l-0.5,0l-1.4,0l-0.6,0l-1.7,0l0,0.1zm3.8,2.7l2,0.1l0.5,0l1,0l0.5,0l0.5,0l0.5,0c0.1,0 0.3,0 0.4,-0.1c0.1,0.1 0.3,0.1 0.5,0.1c0.1,0.8 0.4,1.6 0.9,2.5c0,0.1 0,0.3 0,0.4c0.2,0.3 0.3,0.6 0.5,1l0.6,1.8l0.1,0.5c0.1,0.4 0.3,0.8 0.6,1.3c0,0.7 0.3,1.6 0.6,2.5l0.8,2.1c0,0.2 0.1,0.4 0.4,0.5l0.1,0.8c0,0.3 0.1,0.6 0.4,0.9c0,0.5 0.2,1 0.5,1.6c0,0.3 0.1,0.5 0.3,0.8c0.1,0.9 0.5,1.8 1,2.8l0,0.4l0.1,0.4l0.1,0.3c0,0.1 0.1,0.2 0.3,0.3c0,0.4 0.1,0.8 0.4,1.3l0.1,0.4c0,0.1 0,0.3 0.1,0.4l0.1,0.4l0.1,0.6c0.1,0.4 0.3,0.9 0.6,1.5c0,0.1 0,0.3 0.1,0.4l-0.1,0.3c0.3,0.5 0.6,1.1 0.9,1.9c0,0.3 0.1,0.6 0.4,0.9c0.1,1.2 0.6,2.4 1.5,3.7c-0.1,0.1 -0.1,0.3 -0.1,0.5c-0.7,0.1 -1.5,0 -2.5,-0.1l-0.4,0l-0.4,0.1l-0.3,0.1l-0.4,-0.1c0,-0.4 0,-0.8 0.1,-1.4l-0.5,-0.8c0,-0.4 -0.1,-0.7 -0.3,-1c-0.1,-0.5 -0.4,-1.2 -0.8,-2l-0.1,-0.9l-0.6,-1.4l-0.3,-0.5l-2.3,0.1l-0.9,-0.1l-0.5,0l-0.4,0l-0.4,0.1c-0.4,-0.1 -0.9,-0.1 -1.4,-0.1l-0.6,0l-0.4,0.1l-0.6,-0.1l-2.3,0l-0.5,0c-0.4,-0.1 -0.9,-0.1 -1.5,0l-0.3,-0.1c-0.5,0 -1.2,0 -2,0.1c-0.4,-0.1 -0.9,-0.1 -1.4,-0.1l-0.6,0.1c-0.2,0.5 -0.4,1.2 -0.5,2c-0.3,0.4 -0.4,0.8 -0.4,1.3c-0.7,1.1 -0.9,2.5 -0.9,4l-0.1,0.3l-1.6,0.1l-1.4,0l-0.8,-0.3c0.7,-0.8 1.1,-1.8 1.3,-3l0.5,-1.3l0,-0.8l0.4,-0.9c0.3,-0.6 0.5,-1.2 0.6,-2l0.5,-0.9l0.1,-0.5l0.3,-0.4l0.1,-0.5c0.2,-0.4 0.3,-0.8 0.4,-1.4c0.3,-0.6 0.4,-1.3 0.5,-2.1c0.5,-0.8 0.9,-1.8 1.1,-3c0.4,-0.9 0.8,-2.2 1.3,-3.9c0.1,-0.3 0.2,-0.6 0.4,-1l0,-0.6c0.5,-0.8 0.9,-1.9 1.1,-3.1c0.7,-1.2 1.1,-2.6 1.4,-4.3l0.3,-0.4l0.5,-1.6l0.1,-0.5l0.1,-0.5zm2.4,3.8c-0.6,0.7 -0.9,1.7 -1,2.8c-0.2,0.2 -0.4,0.6 -0.5,1c0,0.3 -0.1,0.5 -0.4,0.8l0,0.4l-0.1,0.3c-0.2,0.5 -0.4,1.1 -0.5,1.8l-0.5,1.1c0,0.3 -0.2,0.7 -0.4,1.1l-0.4,1.3l-0.1,0.9c-0.5,0.8 -0.9,1.8 -1,3c-0.3,0.4 -0.5,0.9 -0.5,1.5c-0.2,0.3 -0.3,0.6 -0.4,1l0,0.4l-0.3,0.6c0.7,0.2 1.6,0.3 2.6,0.1l1,0l0.4,0.1l0.3,-0.1c0.6,0.1 1.4,0.1 2.3,0.1l0.4,0l0.5,0l2.3,0l0.5,0l0.4,0l0.5,0l0.4,0l0.5,-0.1l0.8,0.1l0.4,0l0.5,-0.1c-0.1,-0.9 -0.4,-1.9 -0.9,-3l-0.4,-0.9l0,-0.4l-0.3,-0.3l-0.5,-2.1c0,-0.1 -0.1,-0.2 -0.3,-0.3c-0.1,-0.6 -0.3,-1.2 -0.6,-1.8l-0.3,-0.9c0,-0.3 -0.2,-0.7 -0.4,-1l-0.1,-0.4c-0.1,-0.5 -0.3,-1 -0.6,-1.5l-0.1,-0.8l-0.3,-0.6l-0.1,-0.9l-0.4,-0.5c-0.1,-0.6 -0.3,-1.2 -0.6,-1.9l0,-0.5c-0.6,-0.2 -1.1,-0.3 -1.8,-0.3zm0.5,7.3l-0.1,0l0.5,0.3c0.1,0.8 0.4,1.6 0.9,2.4l0.1,0.9l0.4,0.4c0,0.5 0.1,1 0.4,1.5c0.1,0.4 0.3,0.8 0.6,1.4c0.3,0.4 0.4,0.9 0.3,1.5c-0.6,-0.1 -1.3,-0.1 -2.3,-0.1l-0.5,0c-0.5,-0.1 -1.1,-0.1 -1.8,0l-0.4,0l-0.8,-0.1l0,-0.9c0.3,-0.5 0.6,-1.2 0.9,-2l0.1,-0.3c0,-0.3 0.2,-0.7 0.4,-1.1l0.1,-0.4l0.5,-2.1l0.1,-0.4l0.1,-0.4l0.3,-0.5l0.2,0l0,-0.1zm0.6,3.4l-0.5,1.3c-0.1,0.4 -0.2,0.9 -0.3,1.4l-0.3,0.3l-0.1,0.4l0,0.9c0.8,0.1 1.7,0.1 2.8,0c-0.1,-1 -0.4,-2 -1,-2.9l-0.3,-1.1l-0.3,-0.3z" class="st0"/>
    <path id="svg_9" d="m244,1.8c0.6,-0.1 1.2,0 2,0.1c0.4,0 1,0 1.6,0.1l0.4,0l0.4,-0.1l0.4,0.1c0.4,0 0.8,0 1.3,-0.1c0.6,0.1 1.3,0.2 2.1,0.1l2,-0.1l1.6,0.1l0.8,0l1.6,0l0.4,0l0.4,0c0.6,-0.1 1.3,0 2.1,0.3c0.8,0.7 0.9,1.5 0.3,2.5c0.4,0.4 0.8,1 1.1,1.8l0.3,0.4l0.3,0.3l0.1,0.4l0.3,0.3l0.3,0.4c0.2,0.4 0.5,0.8 0.9,1.3c0,0.1 0.1,0.3 0.3,0.4l0.1,0.5c0.2,0.3 0.5,0.7 1,1.1l0.3,0.5l0.9,1.3l0.4,0.6c0.3,0.3 0.5,0.8 0.8,1.3l0.3,0.1l0.5,0.6l0.3,0.6l0.6,0.4c0,-0.5 0,-1.1 0,-1.8c0.1,-0.6 0.1,-1.3 0,-2.1l0,-0.9l0.1,-0.5l-0.1,-0.4l0,-0.5l0.1,-0.4c0,-0.6 0,-1.4 0,-2.3c0,-0.1 0,-0.2 -0.1,-0.3l0.1,-0.3c-0.1,-0.5 -0.1,-1 -0.1,-1.6c-0.5,-0.5 -0.9,-1.2 -1.3,-2l-0.4,-0.1c-0.1,-0.3 -0.3,-0.7 -0.5,-1.1l-0.4,-0.1l-0.3,-0.4l2.5,0l1,0l0.4,0l0.6,0c0.7,0.1 1.7,0.1 2.8,0l0.4,0c0.3,0.1 0.6,0.1 1,0l0.4,0.1l0.5,-0.1l0.5,0.1l0.8,0l2.5,0l0.4,0l0.5,0l1,1.3c-0.3,0.6 -0.8,1.3 -1.4,2.1l-0.1,0.3l-0.1,0.4c0.2,0.9 0.1,2 -0.1,3.1l0.1,0.3c-0.1,0.4 -0.1,0.8 0,1.3c0,0.4 0,0.9 -0.1,1.4l0.1,0.5c0,0.5 0,1.2 -0.1,2l0,0.4l0.1,0.4l-0.1,0.5l0.1,0.5l0,0.6l-0.1,0.6l0.1,0.8c-0.2,0.9 -0.2,2 0,3.1l-0.1,0.4l0,1.1c0,0.3 0,0.7 0.1,1.1c-0.1,0.3 -0.1,0.5 0,0.8c-0.1,0.5 -0.2,1.3 -0.1,2.1l0,0.5l0,0.5l0,0.5l0,0.5l0,0.4l-0.1,0.5l0.1,0.5l-0.1,0.5l0.1,0.4c0,0.6 0,1.4 -0.1,2.4l0.1,0.9l-0.1,0.9l0,0.8l0.1,0.9l-0.1,0.8c0.3,0.4 0.5,0.8 0.8,1.3l0.5,0.9c0,0.1 0.1,0.2 0.3,0.3c0.2,0.5 0.4,1 0.8,1.6l-0.3,0.3l-2.5,-0.1l-0.4,0l-1,0l-0.4,0l-0.4,0l-2.1,0l-0.5,0c-0.4,-0.1 -0.9,-0.1 -1.4,0l-4.8,-0.1l-0.6,-0.1c-0.3,-0.5 -0.6,-1 -1.1,-1.6c0.3,-0.6 0.6,-1.4 0.8,-2.3l0.3,-0.3l0.1,-0.4l0,-0.9c-0.5,-0.6 -1,-1.3 -1.5,-2.3l-0.3,-0.3l-0.1,-0.4l-0.3,-0.3c-0.2,-0.3 -0.5,-0.7 -0.9,-1.1c-0.2,-0.5 -0.5,-1.1 -1,-1.8l-0.3,-0.4l-0.4,-0.5l-0.1,-0.5l-0.4,-0.4l-0.6,-1l-0.1,-0.3l-0.3,-0.3l-0.4,-0.5c-0.3,-0.7 -0.7,-1.4 -1.4,-2.1c-0.2,-0.6 -0.6,-1.3 -1.3,-1.9c0,-0.1 0,-0.2 -0.1,-0.3l-0.1,-0.4c-0.1,0 -0.2,-0.1 -0.3,-0.3l-0.5,-0.6l-0.5,-0.9l-0.6,-0.5c-0.2,0.8 -0.2,1.7 0,2.6c-0.2,0.9 -0.2,1.9 0,3l-0.1,0.3l0,0.8l0,0.6c0,0.1 0,0.3 0,0.5c0.1,0.6 0,1.4 -0.1,2.4l0.1,0.4l0,0.9l0.1,0.8c-0.1,0.4 -0.1,0.9 0,1.5l-0.1,0.5l0,0.8l0,0.8l0,0.9c0.2,0.5 0.6,1 1,1.5c0.2,0.6 0.6,1.2 1,1.8l0.1,0.5c0.3,0.3 0.7,0.7 1,1.3l0.3,0.4c-0.8,0.3 -1.8,0.3 -2.8,0.1c-0.6,0.1 -1.3,0.1 -2.1,0.1l-0.9,-0.1c-0.7,0.1 -1.5,0.1 -2.5,0l-1,0c-0.4,0 -0.7,0 -1,-0.1l-0.3,0.1l-0.5,-0.1c-0.2,0 -0.5,0 -0.8,0.1l-0.9,0l-0.3,-0.1c-0.4,0 -0.8,0 -1.3,0.1l-0.4,0.1c-0.4,-0.1 -0.9,-0.3 -1.5,-0.5c-0.1,-0.3 -0.3,-0.5 -0.5,-0.6c0,-0.3 -0.1,-0.6 -0.3,-0.9l1.3,-2.3c0.3,-0.2 0.5,-0.4 0.6,-0.8l0.3,-0.4l0.3,-0.4c0,-0.5 0,-1 0.1,-1.6l0,-0.4l-0.1,-0.4l0.1,-0.4l0,-0.8l-0.1,-0.4c0.1,-0.5 0.1,-1.1 0.1,-1.8l0,-0.8c-0.1,-0.3 0,-0.5 0.1,-0.8l-0.1,-0.4l-0.1,-0.6l0.1,-0.3c-0.1,-0.6 -0.1,-1.4 0.1,-2.3l-0.1,-0.4l0,-3.3l-0.1,-0.9l0.1,-1.8l-0.1,-0.8l0.1,-0.9c-0.1,-0.5 0,-1.2 0.1,-2l-0.1,-0.4l0.1,-0.9c0,-0.4 0,-0.9 -0.1,-1.5c0,-0.5 0,-1.6 0,-3.3l-0.1,-0.4l0,-0.2l0.3,-0.8l-0.3,-2.3l0,-0.4c-0.4,-0.7 -1,-1.4 -1.9,-2.3c-0.1,-0.3 -0.3,-0.6 -0.6,-0.8l0.4,-0.4zm1.7,0.5c-0.3,0.1 -0.5,0.3 -0.6,0.6l0.5,0.3c0.1,0.4 0.4,0.9 0.9,1.3l0.4,0.3c0,0.4 0.1,0.9 0.3,1.5c-0.1,0.8 -0.2,1.8 -0.1,2.9l0,1.4l0,0.4c0.1,0.6 0,1.3 -0.1,2.1c0.1,0.4 0.1,0.9 0.1,1.4l0,2.9l0,0.5l-0.1,0.8c0.1,0.6 0.1,1.2 0,1.9l0.1,0.3l0.3,0.5c-0.4,1.2 -0.5,2.6 -0.3,4.3l-0.1,2.5l0,0.4l0,0.9l0.1,0.3c-0.1,0.6 -0.1,1.3 0,2.3l-0.1,0.4l0.1,0.3c0,0.3 0,0.6 0,0.9c-0.1,0.7 -0.1,1.5 0,2.4c-0.1,0.3 -0.1,0.6 0,0.9c-0.2,0.4 -0.5,0.7 -0.9,1l-0.5,0.8c0,0.1 -0.1,0.2 -0.3,0.3c0,0.3 -0.2,0.6 -0.5,0.9l0.3,0.4c0.6,0 1.4,0 2.4,0.1l0.5,-0.1l0.5,0l0.4,0.1l1.8,-0.1c0.4,0.1 1,0.2 1.6,0.1l0.5,0l0.6,0l0.6,0l0.8,0l0.6,0l0.6,0l0.6,0l0.6,-0.1c-0.3,-0.8 -0.8,-1.7 -1.6,-2.5c0,-0.3 0,-0.7 -0.1,-1.1c0.1,-0.6 0.2,-1.3 0.1,-2.1l0,-0.8c0,-0.1 0,-0.3 0,-0.5l0,-0.5l0,-4.4l-0.1,-0.6c0.1,-0.5 0.2,-1.1 0.1,-1.8c0,-0.2 0,-0.4 -0.1,-0.6l0.1,-0.6l0,-0.8l0,-0.6l0,-0.8l-0.1,-0.9c0.2,-1 0.2,-2.1 0,-3.4l0.1,-0.8l-0.3,-0.9c0.2,0 0.5,0.1 0.8,0.3c0.3,1 1,1.9 1.9,2.8c0.4,1 1.1,2 2,2.9c0.3,0.7 0.7,1.4 1.4,2.1c0.1,0.4 0.3,0.8 0.6,1.3l0.4,0.6l0.5,0.4l0.3,0.6c0.2,0.5 0.6,1.1 1.1,1.6c0.2,0.6 0.7,1.2 1.3,1.9c0.3,0.7 0.7,1.4 1.4,2.1l0.1,0.3c0.1,0.2 0.3,0.4 0.5,0.6c0.2,0.6 0.5,1.1 1,1.6l0.4,0.9l0.5,0.5c0,0.7 -0.3,1.4 -0.6,2c0,0.3 -0.1,0.6 -0.3,1l0,0.4c0.7,0.1 1.6,0.1 2.5,0.1l0.4,0l0.4,0.1c0.4,-0.1 0.9,-0.1 1.5,0l0.8,0c0.4,0 1,0 1.6,0l2.1,0l0.5,0l0.6,0l0.6,0l0.6,0c-0.2,-0.9 -0.8,-1.8 -1.6,-2.6c0.1,-0.8 0,-1.7 -0.1,-2.9l0.1,-0.9l-0.1,-0.5c0.2,-0.8 0.2,-1.7 0,-2.6c0.1,-0.1 0.1,-0.3 0,-0.5c0.2,-0.7 0.2,-1.5 0,-2.4l0.1,-0.4c0,-0.3 0,-0.6 0,-1c-0.1,-0.5 -0.1,-1.1 0,-1.9c0,-0.4 0,-1 0,-1.6l-0.1,-0.3l0.1,-0.3c0,-0.3 0,-0.6 -0.1,-0.9l0,-0.8l0.1,-0.9l-0.1,-0.8l0.1,-0.9l-0.1,-1l0.1,-1.1c0.1,-0.5 0,-1.2 -0.1,-2l0,-0.4l0,-0.4c0.1,-0.3 0.1,-0.6 0.1,-0.9l0.1,-0.9l-0.3,-1.1c0.1,-0.2 0.1,-0.5 0.1,-0.8c0,-0.4 0,-0.8 0.1,-1.3c-0.1,-0.4 -0.1,-0.9 0,-1.5l0,-1.1c0.1,-0.2 0.1,-0.4 0.1,-0.6c1.5,-1.3 2,-2.2 1.4,-2.8c-0.4,0 -0.8,0 -1.3,-0.1l-0.9,0.1l-0.3,-0.1l-0.4,0.1l-0.4,-0.1l-0.4,0l-0.4,0l-0.6,0l-0.4,0l-1.8,0l-0.3,0l-0.6,0l-0.6,0l-0.6,0l-0.6,0l-0.6,0l-0.8,0l-0.6,0.1c0.3,0.8 0.8,1.6 1.5,2.4c0.1,0.4 0.3,0.9 0.5,1.4c0.1,0.8 0,1.8 -0.1,3.1l0.1,2l-0.1,0.6l0.1,0.6l0,2.5l0,0.4l0,0.8l-0.1,0.6l0.1,0.6c-0.1,0.5 -0.2,1.1 -0.3,1.8l0.1,0.8l0,0.9l-0.8,-0.5c-0.3,-0.7 -0.7,-1.4 -1.4,-2.1l-0.4,-0.8l-0.5,-0.8c0,-0.1 -0.1,-0.2 -0.3,-0.3l0,-0.4l-0.4,0c0,-0.3 -0.2,-0.7 -0.5,-1.1c-0.3,-0.2 -0.6,-0.7 -0.9,-1.3l-0.5,-0.3c-0.2,-0.9 -0.6,-1.6 -1.4,-2.3l0,-0.4l-0.6,-0.6l-0.5,-0.9l-0.2,-0.2l-0.4,-0.6l-0.4,-0.6c-0.1,-0.2 -0.3,-0.4 -0.5,-0.6l-0.3,-0.8c-0.4,-0.4 -0.8,-1.1 -1.3,-1.9c0.5,-0.5 0.9,-1.2 1,-2l-3.7,-0.3l-0.4,0l-0.5,0c-0.4,0.1 -0.8,0.1 -1.4,0l-0.4,0.1c-0.6,-0.1 -1.3,-0.2 -2.1,-0.1l-0.6,0c-0.5,-0.1 -1.1,-0.1 -1.8,0l-0.9,-0.1l-2,0.1l-0.6,-0.1zm4.3,2.4c1.2,0.2 2.6,0.3 4.4,0.1c0.3,0 0.6,0 0.9,-0.1l0.5,0.1c0.2,0.5 0.5,0.9 0.9,1.4l0.1,0.4l0.5,0.9l0.1,0.3c0.1,0 0.2,0.1 0.3,0.3l0.3,0.4l0.3,0.3l0.3,0.4c0,0.1 0.1,0.2 0.3,0.3l0.1,0.5l0.4,0.3c0,0.1 0.1,0.3 0.3,0.4l0.3,0.5l0.1,0.5c0.6,0.5 1.1,1.2 1.5,2l0.3,0.1l0.9,1.4c0.1,0.4 0.4,0.7 0.8,1c0.2,0.4 0.4,0.8 0.8,1.3l0.5,0.8l0.3,0.3l0.1,0.3l0.1,0.4l0.5,0.5c0.3,0.6 0.7,1.2 1.3,1.9l0.1,0.4c0.4,0.3 0.7,0.7 0.9,1.3c0.3,0.2 0.5,0.6 0.8,1c0.2,0.5 0.6,1.1 1.1,1.6l0.1,0.5c0.1,0 0.2,0.1 0.3,0.3l0.3,0.1c0.2,0.4 0.4,0.8 0.8,1.3l0,-0.2c0.2,0.3 0.5,0.5 0.9,0.8c0.1,0.9 0.6,1.6 1.4,2.1c0.2,-1 0.2,-2.1 0,-3.4l0.1,-0.4l-0.1,-0.3l0,-2c0.1,-0.4 0.1,-0.9 0,-1.4c0,-0.4 0,-0.8 0.1,-1.3l-0.1,-0.6l0,-2l0.1,-0.9l-0.1,-0.6l0.1,-0.9l-0.1,-0.6l0,-0.9c0.1,-0.7 0.1,-1.6 0,-2.5c0.1,-0.3 0.1,-0.6 0,-1l0.1,-0.4c-0.2,-0.9 -0.2,-1.8 0,-2.9l0,-1c0.1,-0.6 0,-1.3 -0.1,-2.1l0,-0.5l-0.1,-0.3c1,-0.2 2.2,-0.2 3.5,0c-0.4,0.9 -0.5,1.9 -0.4,3l0,3.3l0,1.3l0,1.4l0.1,0.4l-0.1,0.5l-0.1,0.4l0.1,0.5l0,0.6c-0.1,0.5 -0.1,1 0,1.6l0.1,0.6l-0.1,0.5c0,0.5 0,1.1 -0.1,1.8l0,1.4l0,0.5c0.1,0.6 0.1,1.3 0.1,2.1l-0.1,0.4l0.1,0.4c0,0.2 0,0.4 0,0.6c-0.1,0.4 -0.1,0.9 -0.1,1.4l0.1,0.5l-0.1,0.9l0.1,0.8c-0.1,0.4 -0.1,0.9 0,1.5l-0.1,1l0,0.4l0,1.3l0,0.5l0,0.5c0,0.4 0,0.8 0,1.4l-0.3,1.1c-0.6,-0.2 -1.4,-0.2 -2.3,-0.1l-0.5,-0.3l0,-0.6c-0.7,-0.7 -1.3,-1.5 -1.9,-2.6c-0.1,-0.3 -0.4,-0.6 -0.6,-1l-0.3,-0.3l-0.1,-0.4l-0.4,-0.1c-0.2,-0.7 -0.6,-1.3 -1.1,-1.9l-0.3,-0.4c-0.2,-0.8 -0.7,-1.5 -1.4,-2.1c0,-0.3 -0.1,-0.6 -0.4,-0.8c0,-0.3 -0.2,-0.6 -0.5,-0.9c-0.2,-0.4 -0.6,-1 -1.1,-1.6l-0.4,-0.9c-0.2,-0.3 -0.5,-0.6 -0.9,-0.9c0,-0.2 -0.1,-0.4 -0.3,-0.6l-0.1,-0.3l-0.1,-0.3l-0.5,-0.5c-0.1,-0.5 -0.4,-0.9 -0.9,-1.3c-0.1,-0.2 -0.2,-0.4 -0.4,-0.6c-0.2,-0.6 -0.6,-1.1 -1.1,-1.6l-0.4,-0.9c-0.2,-0.3 -0.5,-0.5 -0.9,-0.8c-0.2,-0.6 -0.5,-1.2 -1.1,-1.8l-0.3,-0.3l-0.1,-0.4l-1,-1.4l-0.3,-0.1c0,-0.1 0,-0.3 -0.1,-0.4l-0.5,-0.5c-0.3,-1 -1,-2.1 -1.9,-3l0,-0.1c-0.3,-0.1 -0.6,-0.2 -0.9,-0.1l-0.4,0.8c0.2,1 0.3,2.4 0.1,4l0.1,1c-0.1,0.6 -0.1,1.4 0,2.4c0.1,0.4 0.1,1 0,1.6l0,0.4l0,0.4l0.1,0.5l0,0.6c-0.1,0.5 -0.1,1 0,1.6c-0.1,0.6 -0.1,1.2 0,1.9l-0.1,0.5l0.1,0.4l-0.1,0.4l0,2.5l0,2.8l0,0.4l-0.1,0.4c0.1,0.3 0.1,0.6 0.1,1l0,1l0,1.6l0,0.4l0,0.4c-0.1,0.7 0,1.4 0.3,2.3l-0.5,0.1l-2.3,0l-0.9,0.1l-0.4,-0.3c0.4,-1 0.5,-2.2 0.1,-3.5c0.2,-0.4 0.2,-0.8 0.1,-1.3c0.2,-0.7 0.2,-1.4 0,-2.3l0.1,-0.3l-0.1,-0.3c0,-0.2 0,-0.5 0,-0.8c0.3,-0.9 0.3,-1.9 0,-3c0.1,-0.4 0.1,-0.8 0,-1.3l0.1,-0.4l0,-0.9c0,-0.4 0,-0.8 0,-1.3c0,-0.4 0,-0.9 0,-1.5l0,-0.9l-0.1,-0.5c0.1,-0.5 0.1,-1.1 0,-1.8l0,-0.9c0.2,-0.8 0.2,-1.6 0,-2.4c0.1,-0.5 0.1,-1 0,-1.6l0.3,-1l-0.1,-0.4l0.1,-0.6c-0.1,-0.4 -0.2,-0.9 -0.1,-1.4c0.1,-0.4 0,-0.8 -0.1,-1.3l0.1,-1l-0.4,-0.6c-0.2,-0.4 -0.1,-0.7 0.6,-0.8z" class="st0"/>
   </g>
   <g id="svg_10">
    <path id="svg_11" d="m91.5,55c0.9,0 1.7,0.1 2.5,0.2c0.8,0.1 1.5,0.4 2.1,0.7s1.1,0.7 1.5,1.2c0.4,0.5 0.6,1.1 0.6,1.8c0,0.9 -0.3,1.5 -0.8,2c-0.5,0.5 -1.2,0.8 -1.9,1.1l0,0.1c0.9,0.3 1.6,0.7 2.2,1.2c0.6,0.6 0.9,1.4 0.9,2.4c0,0.6 -0.1,1.1 -0.4,1.5c-0.2,0.5 -0.6,0.9 -1.1,1.2c-0.5,0.4 -1.1,0.6 -1.7,0.8c-0.7,0.2 -1.5,0.3 -2.3,0.3l-10.3,0l0,-0.5c0.5,0 0.8,-0.2 0.8,-0.5l0,-12.5c0,-0.3 -0.3,-0.5 -0.8,-0.5l0,-0.5l8.7,0zm0.6,5.8c0.8,0 1.5,-0.1 2.1,-0.3c0.5,-0.2 0.8,-0.7 0.8,-1.3s-0.3,-1.1 -0.8,-1.3c-0.5,-0.2 -1.2,-0.3 -2.1,-0.3l-5.3,0l0,3.3l5.3,0l0,-0.1zm0,6.3c1.2,0 2,-0.2 2.5,-0.5c0.5,-0.4 0.8,-0.8 0.8,-1.4c0,-0.6 -0.3,-1.1 -0.8,-1.4c-0.5,-0.4 -1.3,-0.5 -2.5,-0.5l-5.3,0l0,3.9l5.3,0l0,-0.1z" class="st0"/>
    <path id="svg_12" d="m112.3,55c0.9,0 1.7,0.1 2.4,0.2c0.7,0.2 1.3,0.4 1.9,0.8s0.9,0.8 1.2,1.3s0.4,1.2 0.4,2c0,1.2 -0.4,2.2 -1.1,2.8c-0.7,0.6 -1.7,1.1 -2.9,1.3l3.7,5.3c0.1,0.2 0.3,0.3 0.5,0.3s0.3,0.1 0.5,0.1l0,0.5l-5.2,0l0,-0.5c0.2,0 0.3,0 0.4,-0.1c0.1,-0.1 0.2,-0.1 0.2,-0.2c0,-0.1 0,-0.2 -0.1,-0.3c-0.1,-0.1 -0.2,-0.3 -0.3,-0.5l-3.1,-4.3l-4,0l0,4.9c0,0.2 0.1,0.3 0.2,0.4c0.1,0.1 0.3,0.1 0.7,0.1l0,0.5l-4.8,0l0,-0.5c0.5,0 0.8,-0.2 0.8,-0.5l0,-12.6c0,-0.3 -0.3,-0.5 -0.8,-0.5l0,-0.5l9.4,0zm-0.7,6.5c0.7,0 1.2,-0.1 1.7,-0.2c0.4,-0.1 0.8,-0.2 1.1,-0.4c0.3,-0.2 0.4,-0.4 0.6,-0.7c0.1,-0.3 0.2,-0.5 0.2,-0.8s-0.1,-0.6 -0.2,-0.8c-0.1,-0.3 -0.3,-0.5 -0.6,-0.7c-0.3,-0.2 -0.6,-0.3 -1.1,-0.4c-0.4,-0.1 -1,-0.2 -1.7,-0.2l-4.8,0l0,4.1l4.8,0l0,0.1z" class="st0"/>
    <path id="svg_13" d="m121.2,69.2c0.2,0 0.4,-0.2 0.6,-0.4c0.1,-0.2 0.3,-0.4 0.4,-0.7l5.1,-10.8c0.1,-0.2 0.2,-0.5 0.3,-0.7c0.1,-0.2 0.2,-0.4 0.2,-0.5c0,-0.2 -0.1,-0.3 -0.2,-0.4c-0.1,-0.1 -0.3,-0.1 -0.4,-0.2l0,-0.5l4.7,0l0,0.5c-0.1,0 -0.3,0.1 -0.4,0.2c-0.1,0.1 -0.2,0.2 -0.2,0.4c0,0.1 0,0.3 0.1,0.4s0.2,0.3 0.3,0.6l5.8,11.3c0.1,0.2 0.2,0.4 0.4,0.4c0.2,0.1 0.3,0.2 0.5,0.3l0,0.5l-4.9,0l0,-0.5c0.1,0 0.2,0 0.3,-0.1c0.1,-0.1 0.2,-0.1 0.2,-0.3c0,-0.2 -0.1,-0.4 -0.2,-0.7l-1.1,-2.1l-6.8,0l-1,2c-0.2,0.4 -0.3,0.7 -0.3,0.8c0,0.2 0.2,0.3 0.5,0.3l0,0.5l-3.9,0l0,-0.3zm10.5,-5.2l-2.3,-5.2l-2.6,5.2l4.9,0z" class="st0"/>
    <path id="svg_14" d="m141.7,69.2c0.4,0 0.5,-0.2 0.5,-0.5l0,-12.7c0,-0.3 -0.2,-0.5 -0.5,-0.5l0,-0.5l4.8,0l0,0.5c-0.1,0 -0.2,0.1 -0.2,0.3c0,0.1 0.2,0.4 0.6,0.8l8,8.3l0,-8.9c0,-0.3 -0.2,-0.5 -0.7,-0.5l0,-0.5l4.2,0l0,0.5c-0.4,0 -0.5,0.2 -0.5,0.5l0,12.6c0,0.3 0.2,0.5 0.5,0.5l0,0.5l-4.5,0l0,-0.5c0.2,0 0.4,-0.1 0.4,-0.3c0,-0.1 -0.1,-0.3 -0.4,-0.6l-8.5,-8.8l0,9.2c0,0.3 0.2,0.5 0.6,0.5l0,0.5l-4.1,0l0,-0.4l-0.2,0z" class="st0"/>
    <path id="svg_15" d="m172.1,55c1,0 2,0.1 2.8,0.4c0.9,0.3 1.6,0.7 2.3,1.3c0.6,0.6 1.2,1.4 1.5,2.3s0.6,2 0.6,3.2s-0.2,2.3 -0.6,3.2s-0.9,1.7 -1.5,2.3c-0.6,0.6 -1.4,1.1 -2.3,1.3c-0.9,0.3 -1.8,0.4 -2.8,0.4l-9.2,0l0,-0.5c0.4,0 0.6,-0.2 0.6,-0.5l0,-12.4c0,-0.3 -0.2,-0.5 -0.6,-0.5l0,-0.5l9.2,0zm-1.1,12.3c0.9,0 1.6,-0.1 2.3,-0.2c0.6,-0.1 1.2,-0.4 1.6,-0.8c0.4,-0.4 0.7,-0.9 1,-1.5c0.2,-0.6 0.3,-1.4 0.3,-2.4s-0.1,-1.8 -0.3,-2.4c-0.2,-0.6 -0.5,-1.1 -1,-1.5c-0.4,-0.4 -1,-0.6 -1.6,-0.8c-0.6,-0.1 -1.4,-0.2 -2.3,-0.2l-4.3,0l0,9.8l4.3,0z" class="st0"/>
    <path id="svg_16" d="m184.3,65.1l0.3,0.1c0,0.2 0,0.3 0.1,0.4c0.1,0.2 0.4,0.4 0.8,0.7c0.4,0.2 0.8,0.4 1.3,0.6c0.5,0.2 1,0.3 1.5,0.4c0.5,0.1 1,0.2 1.4,0.2c0.3,0 0.7,0 1.2,-0.1c0.5,0 1,-0.1 1.5,-0.3c0.5,-0.1 0.9,-0.4 1.3,-0.6c0.4,-0.3 0.5,-0.6 0.5,-1c0,-0.4 -0.2,-0.7 -0.5,-0.9c-0.3,-0.2 -0.8,-0.4 -1.3,-0.4c-0.5,-0.1 -1.1,-0.2 -1.8,-0.2c-0.7,0 -1.4,-0.1 -2.1,-0.1c-0.7,-0.1 -1.4,-0.1 -2.1,-0.3c-0.7,-0.1 -1.3,-0.3 -1.8,-0.7c-0.5,-0.3 -1,-0.7 -1.3,-1.3c-0.3,-0.5 -0.5,-1.2 -0.5,-2.1c0,-0.6 0.1,-1.1 0.4,-1.7c0.3,-0.6 0.7,-1 1.2,-1.5c0.6,-0.4 1.3,-0.8 2.1,-1c0.9,-0.3 1.9,-0.4 3,-0.4c1,0 1.8,0.1 2.6,0.2c0.7,0.1 1.3,0.3 1.9,0.5c0.5,0.2 1,0.3 1.3,0.5c0.4,0.1 0.7,0.2 0.9,0.2c0.3,0 0.4,-0.1 0.6,-0.2l0.3,0.2l-1.9,3.5l-0.3,-0.1c0,-0.3 -0.1,-0.5 -0.2,-0.6c-0.1,-0.2 -0.4,-0.4 -0.7,-0.7c-0.3,-0.2 -0.7,-0.4 -1.2,-0.6c-0.5,-0.2 -1,-0.3 -1.5,-0.4c-0.5,-0.1 -1.1,-0.2 -1.6,-0.2c-0.4,0 -0.8,0 -1.3,0.1c-0.4,0.1 -0.8,0.2 -1.2,0.3c-0.4,0.1 -0.6,0.3 -0.9,0.5c-0.2,0.2 -0.3,0.5 -0.3,0.8c0,0.4 0.2,0.8 0.5,1c0.3,0.2 0.8,0.4 1.3,0.5c0.5,0.1 1.1,0.2 1.8,0.2s1.4,0.1 2.1,0.1c0.7,0.1 1.4,0.2 2.1,0.3s1.3,0.4 1.8,0.7c0.5,0.3 1,0.7 1.3,1.2c0.3,0.5 0.5,1.2 0.5,2c0,1 -0.3,1.8 -0.8,2.4c-0.5,0.6 -1.1,1.1 -1.9,1.4c-0.8,0.4 -1.6,0.6 -2.5,0.7c-0.9,0.1 -1.7,0.2 -2.5,0.2c-1.1,0 -1.9,-0.1 -2.7,-0.2c-0.7,-0.1 -1.3,-0.3 -1.8,-0.4c-0.5,-0.2 -0.8,-0.3 -1.1,-0.5c-0.3,-0.1 -0.5,-0.2 -0.7,-0.2c-0.1,0 -0.3,0.1 -0.4,0.2l-0.4,-0.2l1.7,-3.2z" class="st0"/>
   </g>
  </g>
 </g>
</svg>